%TF.GenerationSoftware,KiCad,Pcbnew,10.0.1*%
%TF.CreationDate,2026-05-24T16:39:38-04:00*%
%TF.ProjectId,Frankenstein PCB,4672616e-6b65-46e7-9374-65696e205043,rev?*%
%TF.SameCoordinates,Original*%
%TF.FileFunction,Legend,Top*%
%TF.FilePolarity,Positive*%
%FSLAX46Y46*%
G04 Gerber Fmt 4.6, Leading zero omitted, Abs format (unit mm)*
G04 Created by KiCad (PCBNEW 10.0.1) date 2026-05-24 16:39:38*
%MOMM*%
%LPD*%
G01*
G04 APERTURE LIST*
%ADD10C,0.150000*%
%ADD11C,0.000000*%
%ADD12C,0.120000*%
%ADD13C,0.127000*%
%ADD14C,0.200000*%
G04 APERTURE END LIST*
D10*
X168190476Y-80799819D02*
X168190476Y-79799819D01*
X168190476Y-79799819D02*
X168523809Y-80514104D01*
X168523809Y-80514104D02*
X168857142Y-79799819D01*
X168857142Y-79799819D02*
X168857142Y-80799819D01*
X169666666Y-80276009D02*
X169809523Y-80323628D01*
X169809523Y-80323628D02*
X169857142Y-80371247D01*
X169857142Y-80371247D02*
X169904761Y-80466485D01*
X169904761Y-80466485D02*
X169904761Y-80609342D01*
X169904761Y-80609342D02*
X169857142Y-80704580D01*
X169857142Y-80704580D02*
X169809523Y-80752200D01*
X169809523Y-80752200D02*
X169714285Y-80799819D01*
X169714285Y-80799819D02*
X169333333Y-80799819D01*
X169333333Y-80799819D02*
X169333333Y-79799819D01*
X169333333Y-79799819D02*
X169666666Y-79799819D01*
X169666666Y-79799819D02*
X169761904Y-79847438D01*
X169761904Y-79847438D02*
X169809523Y-79895057D01*
X169809523Y-79895057D02*
X169857142Y-79990295D01*
X169857142Y-79990295D02*
X169857142Y-80085533D01*
X169857142Y-80085533D02*
X169809523Y-80180771D01*
X169809523Y-80180771D02*
X169761904Y-80228390D01*
X169761904Y-80228390D02*
X169666666Y-80276009D01*
X169666666Y-80276009D02*
X169333333Y-80276009D01*
X170809523Y-79799819D02*
X170333333Y-79799819D01*
X170333333Y-79799819D02*
X170285714Y-80276009D01*
X170285714Y-80276009D02*
X170333333Y-80228390D01*
X170333333Y-80228390D02*
X170428571Y-80180771D01*
X170428571Y-80180771D02*
X170666666Y-80180771D01*
X170666666Y-80180771D02*
X170761904Y-80228390D01*
X170761904Y-80228390D02*
X170809523Y-80276009D01*
X170809523Y-80276009D02*
X170857142Y-80371247D01*
X170857142Y-80371247D02*
X170857142Y-80609342D01*
X170857142Y-80609342D02*
X170809523Y-80704580D01*
X170809523Y-80704580D02*
X170761904Y-80752200D01*
X170761904Y-80752200D02*
X170666666Y-80799819D01*
X170666666Y-80799819D02*
X170428571Y-80799819D01*
X170428571Y-80799819D02*
X170333333Y-80752200D01*
X170333333Y-80752200D02*
X170285714Y-80704580D01*
X162321428Y-116994819D02*
X162321428Y-117709104D01*
X162321428Y-117709104D02*
X162273809Y-117851961D01*
X162273809Y-117851961D02*
X162178571Y-117947200D01*
X162178571Y-117947200D02*
X162035714Y-117994819D01*
X162035714Y-117994819D02*
X161940476Y-117994819D01*
X162940476Y-117994819D02*
X162845238Y-117947200D01*
X162845238Y-117947200D02*
X162797619Y-117899580D01*
X162797619Y-117899580D02*
X162750000Y-117804342D01*
X162750000Y-117804342D02*
X162750000Y-117518628D01*
X162750000Y-117518628D02*
X162797619Y-117423390D01*
X162797619Y-117423390D02*
X162845238Y-117375771D01*
X162845238Y-117375771D02*
X162940476Y-117328152D01*
X162940476Y-117328152D02*
X163083333Y-117328152D01*
X163083333Y-117328152D02*
X163178571Y-117375771D01*
X163178571Y-117375771D02*
X163226190Y-117423390D01*
X163226190Y-117423390D02*
X163273809Y-117518628D01*
X163273809Y-117518628D02*
X163273809Y-117804342D01*
X163273809Y-117804342D02*
X163226190Y-117899580D01*
X163226190Y-117899580D02*
X163178571Y-117947200D01*
X163178571Y-117947200D02*
X163083333Y-117994819D01*
X163083333Y-117994819D02*
X162940476Y-117994819D01*
X163607143Y-117328152D02*
X163845238Y-117994819D01*
X164083333Y-117328152D02*
X163845238Y-117994819D01*
X163845238Y-117994819D02*
X163750000Y-118232914D01*
X163750000Y-118232914D02*
X163702381Y-118280533D01*
X163702381Y-118280533D02*
X163607143Y-118328152D01*
X164416667Y-117947200D02*
X164511905Y-117994819D01*
X164511905Y-117994819D02*
X164702381Y-117994819D01*
X164702381Y-117994819D02*
X164797619Y-117947200D01*
X164797619Y-117947200D02*
X164845238Y-117851961D01*
X164845238Y-117851961D02*
X164845238Y-117804342D01*
X164845238Y-117804342D02*
X164797619Y-117709104D01*
X164797619Y-117709104D02*
X164702381Y-117661485D01*
X164702381Y-117661485D02*
X164559524Y-117661485D01*
X164559524Y-117661485D02*
X164464286Y-117613866D01*
X164464286Y-117613866D02*
X164416667Y-117518628D01*
X164416667Y-117518628D02*
X164416667Y-117471009D01*
X164416667Y-117471009D02*
X164464286Y-117375771D01*
X164464286Y-117375771D02*
X164559524Y-117328152D01*
X164559524Y-117328152D02*
X164702381Y-117328152D01*
X164702381Y-117328152D02*
X164797619Y-117375771D01*
X165130953Y-117328152D02*
X165511905Y-117328152D01*
X165273810Y-116994819D02*
X165273810Y-117851961D01*
X165273810Y-117851961D02*
X165321429Y-117947200D01*
X165321429Y-117947200D02*
X165416667Y-117994819D01*
X165416667Y-117994819D02*
X165511905Y-117994819D01*
X165845239Y-117994819D02*
X165845239Y-117328152D01*
X165845239Y-116994819D02*
X165797620Y-117042438D01*
X165797620Y-117042438D02*
X165845239Y-117090057D01*
X165845239Y-117090057D02*
X165892858Y-117042438D01*
X165892858Y-117042438D02*
X165845239Y-116994819D01*
X165845239Y-116994819D02*
X165845239Y-117090057D01*
X166750000Y-117947200D02*
X166654762Y-117994819D01*
X166654762Y-117994819D02*
X166464286Y-117994819D01*
X166464286Y-117994819D02*
X166369048Y-117947200D01*
X166369048Y-117947200D02*
X166321429Y-117899580D01*
X166321429Y-117899580D02*
X166273810Y-117804342D01*
X166273810Y-117804342D02*
X166273810Y-117518628D01*
X166273810Y-117518628D02*
X166321429Y-117423390D01*
X166321429Y-117423390D02*
X166369048Y-117375771D01*
X166369048Y-117375771D02*
X166464286Y-117328152D01*
X166464286Y-117328152D02*
X166654762Y-117328152D01*
X166654762Y-117328152D02*
X166750000Y-117375771D01*
X167178572Y-117994819D02*
X167178572Y-116994819D01*
X167273810Y-117613866D02*
X167559524Y-117994819D01*
X167559524Y-117328152D02*
X167178572Y-117709104D01*
X168511905Y-117994819D02*
X167940477Y-117994819D01*
X168226191Y-117994819D02*
X168226191Y-116994819D01*
X168226191Y-116994819D02*
X168130953Y-117137676D01*
X168130953Y-117137676D02*
X168035715Y-117232914D01*
X168035715Y-117232914D02*
X167940477Y-117280533D01*
X131088095Y-78751009D02*
X131230952Y-78798628D01*
X131230952Y-78798628D02*
X131278571Y-78846247D01*
X131278571Y-78846247D02*
X131326190Y-78941485D01*
X131326190Y-78941485D02*
X131326190Y-79084342D01*
X131326190Y-79084342D02*
X131278571Y-79179580D01*
X131278571Y-79179580D02*
X131230952Y-79227200D01*
X131230952Y-79227200D02*
X131135714Y-79274819D01*
X131135714Y-79274819D02*
X130754762Y-79274819D01*
X130754762Y-79274819D02*
X130754762Y-78274819D01*
X130754762Y-78274819D02*
X131088095Y-78274819D01*
X131088095Y-78274819D02*
X131183333Y-78322438D01*
X131183333Y-78322438D02*
X131230952Y-78370057D01*
X131230952Y-78370057D02*
X131278571Y-78465295D01*
X131278571Y-78465295D02*
X131278571Y-78560533D01*
X131278571Y-78560533D02*
X131230952Y-78655771D01*
X131230952Y-78655771D02*
X131183333Y-78703390D01*
X131183333Y-78703390D02*
X131088095Y-78751009D01*
X131088095Y-78751009D02*
X130754762Y-78751009D01*
X131754762Y-79274819D02*
X131754762Y-78608152D01*
X131754762Y-78798628D02*
X131802381Y-78703390D01*
X131802381Y-78703390D02*
X131850000Y-78655771D01*
X131850000Y-78655771D02*
X131945238Y-78608152D01*
X131945238Y-78608152D02*
X132040476Y-78608152D01*
X132802381Y-79274819D02*
X132802381Y-78751009D01*
X132802381Y-78751009D02*
X132754762Y-78655771D01*
X132754762Y-78655771D02*
X132659524Y-78608152D01*
X132659524Y-78608152D02*
X132469048Y-78608152D01*
X132469048Y-78608152D02*
X132373810Y-78655771D01*
X132802381Y-79227200D02*
X132707143Y-79274819D01*
X132707143Y-79274819D02*
X132469048Y-79274819D01*
X132469048Y-79274819D02*
X132373810Y-79227200D01*
X132373810Y-79227200D02*
X132326191Y-79131961D01*
X132326191Y-79131961D02*
X132326191Y-79036723D01*
X132326191Y-79036723D02*
X132373810Y-78941485D01*
X132373810Y-78941485D02*
X132469048Y-78893866D01*
X132469048Y-78893866D02*
X132707143Y-78893866D01*
X132707143Y-78893866D02*
X132802381Y-78846247D01*
X133278572Y-79274819D02*
X133278572Y-78608152D01*
X133278572Y-78274819D02*
X133230953Y-78322438D01*
X133230953Y-78322438D02*
X133278572Y-78370057D01*
X133278572Y-78370057D02*
X133326191Y-78322438D01*
X133326191Y-78322438D02*
X133278572Y-78274819D01*
X133278572Y-78274819D02*
X133278572Y-78370057D01*
X133754762Y-78608152D02*
X133754762Y-79274819D01*
X133754762Y-78703390D02*
X133802381Y-78655771D01*
X133802381Y-78655771D02*
X133897619Y-78608152D01*
X133897619Y-78608152D02*
X134040476Y-78608152D01*
X134040476Y-78608152D02*
X134135714Y-78655771D01*
X134135714Y-78655771D02*
X134183333Y-78751009D01*
X134183333Y-78751009D02*
X134183333Y-79274819D01*
X134611905Y-79227200D02*
X134707143Y-79274819D01*
X134707143Y-79274819D02*
X134897619Y-79274819D01*
X134897619Y-79274819D02*
X134992857Y-79227200D01*
X134992857Y-79227200D02*
X135040476Y-79131961D01*
X135040476Y-79131961D02*
X135040476Y-79084342D01*
X135040476Y-79084342D02*
X134992857Y-78989104D01*
X134992857Y-78989104D02*
X134897619Y-78941485D01*
X134897619Y-78941485D02*
X134754762Y-78941485D01*
X134754762Y-78941485D02*
X134659524Y-78893866D01*
X134659524Y-78893866D02*
X134611905Y-78798628D01*
X134611905Y-78798628D02*
X134611905Y-78751009D01*
X134611905Y-78751009D02*
X134659524Y-78655771D01*
X134659524Y-78655771D02*
X134754762Y-78608152D01*
X134754762Y-78608152D02*
X134897619Y-78608152D01*
X134897619Y-78608152D02*
X134992857Y-78655771D01*
X135992857Y-79274819D02*
X135421429Y-79274819D01*
X135707143Y-79274819D02*
X135707143Y-78274819D01*
X135707143Y-78274819D02*
X135611905Y-78417676D01*
X135611905Y-78417676D02*
X135516667Y-78512914D01*
X135516667Y-78512914D02*
X135421429Y-78560533D01*
X163940476Y-88284819D02*
X163940476Y-87284819D01*
X163940476Y-87284819D02*
X164273809Y-87999104D01*
X164273809Y-87999104D02*
X164607142Y-87284819D01*
X164607142Y-87284819D02*
X164607142Y-88284819D01*
X165416666Y-87761009D02*
X165559523Y-87808628D01*
X165559523Y-87808628D02*
X165607142Y-87856247D01*
X165607142Y-87856247D02*
X165654761Y-87951485D01*
X165654761Y-87951485D02*
X165654761Y-88094342D01*
X165654761Y-88094342D02*
X165607142Y-88189580D01*
X165607142Y-88189580D02*
X165559523Y-88237200D01*
X165559523Y-88237200D02*
X165464285Y-88284819D01*
X165464285Y-88284819D02*
X165083333Y-88284819D01*
X165083333Y-88284819D02*
X165083333Y-87284819D01*
X165083333Y-87284819D02*
X165416666Y-87284819D01*
X165416666Y-87284819D02*
X165511904Y-87332438D01*
X165511904Y-87332438D02*
X165559523Y-87380057D01*
X165559523Y-87380057D02*
X165607142Y-87475295D01*
X165607142Y-87475295D02*
X165607142Y-87570533D01*
X165607142Y-87570533D02*
X165559523Y-87665771D01*
X165559523Y-87665771D02*
X165511904Y-87713390D01*
X165511904Y-87713390D02*
X165416666Y-87761009D01*
X165416666Y-87761009D02*
X165083333Y-87761009D01*
X166511904Y-87618152D02*
X166511904Y-88284819D01*
X166273809Y-87237200D02*
X166035714Y-87951485D01*
X166035714Y-87951485D02*
X166654761Y-87951485D01*
X124154761Y-86649580D02*
X124107142Y-86697200D01*
X124107142Y-86697200D02*
X123964285Y-86744819D01*
X123964285Y-86744819D02*
X123869047Y-86744819D01*
X123869047Y-86744819D02*
X123726190Y-86697200D01*
X123726190Y-86697200D02*
X123630952Y-86601961D01*
X123630952Y-86601961D02*
X123583333Y-86506723D01*
X123583333Y-86506723D02*
X123535714Y-86316247D01*
X123535714Y-86316247D02*
X123535714Y-86173390D01*
X123535714Y-86173390D02*
X123583333Y-85982914D01*
X123583333Y-85982914D02*
X123630952Y-85887676D01*
X123630952Y-85887676D02*
X123726190Y-85792438D01*
X123726190Y-85792438D02*
X123869047Y-85744819D01*
X123869047Y-85744819D02*
X123964285Y-85744819D01*
X123964285Y-85744819D02*
X124107142Y-85792438D01*
X124107142Y-85792438D02*
X124154761Y-85840057D01*
X124583333Y-86744819D02*
X124583333Y-85744819D01*
X125011904Y-86744819D02*
X125011904Y-86221009D01*
X125011904Y-86221009D02*
X124964285Y-86125771D01*
X124964285Y-86125771D02*
X124869047Y-86078152D01*
X124869047Y-86078152D02*
X124726190Y-86078152D01*
X124726190Y-86078152D02*
X124630952Y-86125771D01*
X124630952Y-86125771D02*
X124583333Y-86173390D01*
X125916666Y-86744819D02*
X125916666Y-86221009D01*
X125916666Y-86221009D02*
X125869047Y-86125771D01*
X125869047Y-86125771D02*
X125773809Y-86078152D01*
X125773809Y-86078152D02*
X125583333Y-86078152D01*
X125583333Y-86078152D02*
X125488095Y-86125771D01*
X125916666Y-86697200D02*
X125821428Y-86744819D01*
X125821428Y-86744819D02*
X125583333Y-86744819D01*
X125583333Y-86744819D02*
X125488095Y-86697200D01*
X125488095Y-86697200D02*
X125440476Y-86601961D01*
X125440476Y-86601961D02*
X125440476Y-86506723D01*
X125440476Y-86506723D02*
X125488095Y-86411485D01*
X125488095Y-86411485D02*
X125583333Y-86363866D01*
X125583333Y-86363866D02*
X125821428Y-86363866D01*
X125821428Y-86363866D02*
X125916666Y-86316247D01*
X126392857Y-86744819D02*
X126392857Y-86078152D01*
X126392857Y-86268628D02*
X126440476Y-86173390D01*
X126440476Y-86173390D02*
X126488095Y-86125771D01*
X126488095Y-86125771D02*
X126583333Y-86078152D01*
X126583333Y-86078152D02*
X126678571Y-86078152D01*
X127440476Y-86078152D02*
X127440476Y-86887676D01*
X127440476Y-86887676D02*
X127392857Y-86982914D01*
X127392857Y-86982914D02*
X127345238Y-87030533D01*
X127345238Y-87030533D02*
X127250000Y-87078152D01*
X127250000Y-87078152D02*
X127107143Y-87078152D01*
X127107143Y-87078152D02*
X127011905Y-87030533D01*
X127440476Y-86697200D02*
X127345238Y-86744819D01*
X127345238Y-86744819D02*
X127154762Y-86744819D01*
X127154762Y-86744819D02*
X127059524Y-86697200D01*
X127059524Y-86697200D02*
X127011905Y-86649580D01*
X127011905Y-86649580D02*
X126964286Y-86554342D01*
X126964286Y-86554342D02*
X126964286Y-86268628D01*
X126964286Y-86268628D02*
X127011905Y-86173390D01*
X127011905Y-86173390D02*
X127059524Y-86125771D01*
X127059524Y-86125771D02*
X127154762Y-86078152D01*
X127154762Y-86078152D02*
X127345238Y-86078152D01*
X127345238Y-86078152D02*
X127440476Y-86125771D01*
X128297619Y-86697200D02*
X128202381Y-86744819D01*
X128202381Y-86744819D02*
X128011905Y-86744819D01*
X128011905Y-86744819D02*
X127916667Y-86697200D01*
X127916667Y-86697200D02*
X127869048Y-86601961D01*
X127869048Y-86601961D02*
X127869048Y-86221009D01*
X127869048Y-86221009D02*
X127916667Y-86125771D01*
X127916667Y-86125771D02*
X128011905Y-86078152D01*
X128011905Y-86078152D02*
X128202381Y-86078152D01*
X128202381Y-86078152D02*
X128297619Y-86125771D01*
X128297619Y-86125771D02*
X128345238Y-86221009D01*
X128345238Y-86221009D02*
X128345238Y-86316247D01*
X128345238Y-86316247D02*
X127869048Y-86411485D01*
X128773810Y-86744819D02*
X128773810Y-86078152D01*
X128773810Y-86268628D02*
X128821429Y-86173390D01*
X128821429Y-86173390D02*
X128869048Y-86125771D01*
X128869048Y-86125771D02*
X128964286Y-86078152D01*
X128964286Y-86078152D02*
X129059524Y-86078152D01*
X162226190Y-110657200D02*
X162369047Y-110704819D01*
X162369047Y-110704819D02*
X162607142Y-110704819D01*
X162607142Y-110704819D02*
X162702380Y-110657200D01*
X162702380Y-110657200D02*
X162749999Y-110609580D01*
X162749999Y-110609580D02*
X162797618Y-110514342D01*
X162797618Y-110514342D02*
X162797618Y-110419104D01*
X162797618Y-110419104D02*
X162749999Y-110323866D01*
X162749999Y-110323866D02*
X162702380Y-110276247D01*
X162702380Y-110276247D02*
X162607142Y-110228628D01*
X162607142Y-110228628D02*
X162416666Y-110181009D01*
X162416666Y-110181009D02*
X162321428Y-110133390D01*
X162321428Y-110133390D02*
X162273809Y-110085771D01*
X162273809Y-110085771D02*
X162226190Y-109990533D01*
X162226190Y-109990533D02*
X162226190Y-109895295D01*
X162226190Y-109895295D02*
X162273809Y-109800057D01*
X162273809Y-109800057D02*
X162321428Y-109752438D01*
X162321428Y-109752438D02*
X162416666Y-109704819D01*
X162416666Y-109704819D02*
X162654761Y-109704819D01*
X162654761Y-109704819D02*
X162797618Y-109752438D01*
X163607142Y-110657200D02*
X163511904Y-110704819D01*
X163511904Y-110704819D02*
X163321428Y-110704819D01*
X163321428Y-110704819D02*
X163226190Y-110657200D01*
X163226190Y-110657200D02*
X163178571Y-110561961D01*
X163178571Y-110561961D02*
X163178571Y-110181009D01*
X163178571Y-110181009D02*
X163226190Y-110085771D01*
X163226190Y-110085771D02*
X163321428Y-110038152D01*
X163321428Y-110038152D02*
X163511904Y-110038152D01*
X163511904Y-110038152D02*
X163607142Y-110085771D01*
X163607142Y-110085771D02*
X163654761Y-110181009D01*
X163654761Y-110181009D02*
X163654761Y-110276247D01*
X163654761Y-110276247D02*
X163178571Y-110371485D01*
X164083333Y-110038152D02*
X164083333Y-110704819D01*
X164083333Y-110133390D02*
X164130952Y-110085771D01*
X164130952Y-110085771D02*
X164226190Y-110038152D01*
X164226190Y-110038152D02*
X164369047Y-110038152D01*
X164369047Y-110038152D02*
X164464285Y-110085771D01*
X164464285Y-110085771D02*
X164511904Y-110181009D01*
X164511904Y-110181009D02*
X164511904Y-110704819D01*
X164940476Y-110657200D02*
X165035714Y-110704819D01*
X165035714Y-110704819D02*
X165226190Y-110704819D01*
X165226190Y-110704819D02*
X165321428Y-110657200D01*
X165321428Y-110657200D02*
X165369047Y-110561961D01*
X165369047Y-110561961D02*
X165369047Y-110514342D01*
X165369047Y-110514342D02*
X165321428Y-110419104D01*
X165321428Y-110419104D02*
X165226190Y-110371485D01*
X165226190Y-110371485D02*
X165083333Y-110371485D01*
X165083333Y-110371485D02*
X164988095Y-110323866D01*
X164988095Y-110323866D02*
X164940476Y-110228628D01*
X164940476Y-110228628D02*
X164940476Y-110181009D01*
X164940476Y-110181009D02*
X164988095Y-110085771D01*
X164988095Y-110085771D02*
X165083333Y-110038152D01*
X165083333Y-110038152D02*
X165226190Y-110038152D01*
X165226190Y-110038152D02*
X165321428Y-110085771D01*
X165797619Y-109704819D02*
X165797619Y-110514342D01*
X165797619Y-110514342D02*
X165845238Y-110609580D01*
X165845238Y-110609580D02*
X165892857Y-110657200D01*
X165892857Y-110657200D02*
X165988095Y-110704819D01*
X165988095Y-110704819D02*
X166178571Y-110704819D01*
X166178571Y-110704819D02*
X166273809Y-110657200D01*
X166273809Y-110657200D02*
X166321428Y-110609580D01*
X166321428Y-110609580D02*
X166369047Y-110514342D01*
X166369047Y-110514342D02*
X166369047Y-109704819D01*
X166845238Y-110038152D02*
X166845238Y-111038152D01*
X166845238Y-110085771D02*
X166940476Y-110038152D01*
X166940476Y-110038152D02*
X167130952Y-110038152D01*
X167130952Y-110038152D02*
X167226190Y-110085771D01*
X167226190Y-110085771D02*
X167273809Y-110133390D01*
X167273809Y-110133390D02*
X167321428Y-110228628D01*
X167321428Y-110228628D02*
X167321428Y-110514342D01*
X167321428Y-110514342D02*
X167273809Y-110609580D01*
X167273809Y-110609580D02*
X167226190Y-110657200D01*
X167226190Y-110657200D02*
X167130952Y-110704819D01*
X167130952Y-110704819D02*
X166940476Y-110704819D01*
X166940476Y-110704819D02*
X166845238Y-110657200D01*
X168273809Y-110704819D02*
X167702381Y-110704819D01*
X167988095Y-110704819D02*
X167988095Y-109704819D01*
X167988095Y-109704819D02*
X167892857Y-109847676D01*
X167892857Y-109847676D02*
X167797619Y-109942914D01*
X167797619Y-109942914D02*
X167702381Y-109990533D01*
X124321428Y-104994819D02*
X124511904Y-104994819D01*
X124511904Y-104994819D02*
X124607142Y-105042438D01*
X124607142Y-105042438D02*
X124702380Y-105137676D01*
X124702380Y-105137676D02*
X124749999Y-105328152D01*
X124749999Y-105328152D02*
X124749999Y-105661485D01*
X124749999Y-105661485D02*
X124702380Y-105851961D01*
X124702380Y-105851961D02*
X124607142Y-105947200D01*
X124607142Y-105947200D02*
X124511904Y-105994819D01*
X124511904Y-105994819D02*
X124321428Y-105994819D01*
X124321428Y-105994819D02*
X124226190Y-105947200D01*
X124226190Y-105947200D02*
X124130952Y-105851961D01*
X124130952Y-105851961D02*
X124083333Y-105661485D01*
X124083333Y-105661485D02*
X124083333Y-105328152D01*
X124083333Y-105328152D02*
X124130952Y-105137676D01*
X124130952Y-105137676D02*
X124226190Y-105042438D01*
X124226190Y-105042438D02*
X124321428Y-104994819D01*
X125654761Y-105994819D02*
X125178571Y-105994819D01*
X125178571Y-105994819D02*
X125178571Y-104994819D01*
X125988095Y-105471009D02*
X126321428Y-105471009D01*
X126464285Y-105994819D02*
X125988095Y-105994819D01*
X125988095Y-105994819D02*
X125988095Y-104994819D01*
X125988095Y-104994819D02*
X126464285Y-104994819D01*
X126892857Y-105994819D02*
X126892857Y-104994819D01*
X126892857Y-104994819D02*
X127130952Y-104994819D01*
X127130952Y-104994819D02*
X127273809Y-105042438D01*
X127273809Y-105042438D02*
X127369047Y-105137676D01*
X127369047Y-105137676D02*
X127416666Y-105232914D01*
X127416666Y-105232914D02*
X127464285Y-105423390D01*
X127464285Y-105423390D02*
X127464285Y-105566247D01*
X127464285Y-105566247D02*
X127416666Y-105756723D01*
X127416666Y-105756723D02*
X127369047Y-105851961D01*
X127369047Y-105851961D02*
X127273809Y-105947200D01*
X127273809Y-105947200D02*
X127130952Y-105994819D01*
X127130952Y-105994819D02*
X126892857Y-105994819D01*
X128416666Y-105994819D02*
X127845238Y-105994819D01*
X128130952Y-105994819D02*
X128130952Y-104994819D01*
X128130952Y-104994819D02*
X128035714Y-105137676D01*
X128035714Y-105137676D02*
X127940476Y-105232914D01*
X127940476Y-105232914D02*
X127845238Y-105280533D01*
X164583333Y-95799819D02*
X164107143Y-95799819D01*
X164107143Y-95799819D02*
X164107143Y-94799819D01*
X165488095Y-95704580D02*
X165440476Y-95752200D01*
X165440476Y-95752200D02*
X165297619Y-95799819D01*
X165297619Y-95799819D02*
X165202381Y-95799819D01*
X165202381Y-95799819D02*
X165059524Y-95752200D01*
X165059524Y-95752200D02*
X164964286Y-95656961D01*
X164964286Y-95656961D02*
X164916667Y-95561723D01*
X164916667Y-95561723D02*
X164869048Y-95371247D01*
X164869048Y-95371247D02*
X164869048Y-95228390D01*
X164869048Y-95228390D02*
X164916667Y-95037914D01*
X164916667Y-95037914D02*
X164964286Y-94942676D01*
X164964286Y-94942676D02*
X165059524Y-94847438D01*
X165059524Y-94847438D02*
X165202381Y-94799819D01*
X165202381Y-94799819D02*
X165297619Y-94799819D01*
X165297619Y-94799819D02*
X165440476Y-94847438D01*
X165440476Y-94847438D02*
X165488095Y-94895057D01*
X166440476Y-95799819D02*
X165869048Y-95799819D01*
X166154762Y-95799819D02*
X166154762Y-94799819D01*
X166154762Y-94799819D02*
X166059524Y-94942676D01*
X166059524Y-94942676D02*
X165964286Y-95037914D01*
X165964286Y-95037914D02*
X165869048Y-95085533D01*
X161273809Y-103172200D02*
X161416666Y-103219819D01*
X161416666Y-103219819D02*
X161654761Y-103219819D01*
X161654761Y-103219819D02*
X161749999Y-103172200D01*
X161749999Y-103172200D02*
X161797618Y-103124580D01*
X161797618Y-103124580D02*
X161845237Y-103029342D01*
X161845237Y-103029342D02*
X161845237Y-102934104D01*
X161845237Y-102934104D02*
X161797618Y-102838866D01*
X161797618Y-102838866D02*
X161749999Y-102791247D01*
X161749999Y-102791247D02*
X161654761Y-102743628D01*
X161654761Y-102743628D02*
X161464285Y-102696009D01*
X161464285Y-102696009D02*
X161369047Y-102648390D01*
X161369047Y-102648390D02*
X161321428Y-102600771D01*
X161321428Y-102600771D02*
X161273809Y-102505533D01*
X161273809Y-102505533D02*
X161273809Y-102410295D01*
X161273809Y-102410295D02*
X161321428Y-102315057D01*
X161321428Y-102315057D02*
X161369047Y-102267438D01*
X161369047Y-102267438D02*
X161464285Y-102219819D01*
X161464285Y-102219819D02*
X161702380Y-102219819D01*
X161702380Y-102219819D02*
X161845237Y-102267438D01*
X162654761Y-103172200D02*
X162559523Y-103219819D01*
X162559523Y-103219819D02*
X162369047Y-103219819D01*
X162369047Y-103219819D02*
X162273809Y-103172200D01*
X162273809Y-103172200D02*
X162226190Y-103076961D01*
X162226190Y-103076961D02*
X162226190Y-102696009D01*
X162226190Y-102696009D02*
X162273809Y-102600771D01*
X162273809Y-102600771D02*
X162369047Y-102553152D01*
X162369047Y-102553152D02*
X162559523Y-102553152D01*
X162559523Y-102553152D02*
X162654761Y-102600771D01*
X162654761Y-102600771D02*
X162702380Y-102696009D01*
X162702380Y-102696009D02*
X162702380Y-102791247D01*
X162702380Y-102791247D02*
X162226190Y-102886485D01*
X163130952Y-102553152D02*
X163130952Y-103219819D01*
X163130952Y-102648390D02*
X163178571Y-102600771D01*
X163178571Y-102600771D02*
X163273809Y-102553152D01*
X163273809Y-102553152D02*
X163416666Y-102553152D01*
X163416666Y-102553152D02*
X163511904Y-102600771D01*
X163511904Y-102600771D02*
X163559523Y-102696009D01*
X163559523Y-102696009D02*
X163559523Y-103219819D01*
X163988095Y-103172200D02*
X164083333Y-103219819D01*
X164083333Y-103219819D02*
X164273809Y-103219819D01*
X164273809Y-103219819D02*
X164369047Y-103172200D01*
X164369047Y-103172200D02*
X164416666Y-103076961D01*
X164416666Y-103076961D02*
X164416666Y-103029342D01*
X164416666Y-103029342D02*
X164369047Y-102934104D01*
X164369047Y-102934104D02*
X164273809Y-102886485D01*
X164273809Y-102886485D02*
X164130952Y-102886485D01*
X164130952Y-102886485D02*
X164035714Y-102838866D01*
X164035714Y-102838866D02*
X163988095Y-102743628D01*
X163988095Y-102743628D02*
X163988095Y-102696009D01*
X163988095Y-102696009D02*
X164035714Y-102600771D01*
X164035714Y-102600771D02*
X164130952Y-102553152D01*
X164130952Y-102553152D02*
X164273809Y-102553152D01*
X164273809Y-102553152D02*
X164369047Y-102600771D01*
X164845238Y-103219819D02*
X164845238Y-102219819D01*
X164845238Y-102219819D02*
X165083333Y-102219819D01*
X165083333Y-102219819D02*
X165226190Y-102267438D01*
X165226190Y-102267438D02*
X165321428Y-102362676D01*
X165321428Y-102362676D02*
X165369047Y-102457914D01*
X165369047Y-102457914D02*
X165416666Y-102648390D01*
X165416666Y-102648390D02*
X165416666Y-102791247D01*
X165416666Y-102791247D02*
X165369047Y-102981723D01*
X165369047Y-102981723D02*
X165321428Y-103076961D01*
X165321428Y-103076961D02*
X165226190Y-103172200D01*
X165226190Y-103172200D02*
X165083333Y-103219819D01*
X165083333Y-103219819D02*
X164845238Y-103219819D01*
X165988095Y-103219819D02*
X165892857Y-103172200D01*
X165892857Y-103172200D02*
X165845238Y-103124580D01*
X165845238Y-103124580D02*
X165797619Y-103029342D01*
X165797619Y-103029342D02*
X165797619Y-102743628D01*
X165797619Y-102743628D02*
X165845238Y-102648390D01*
X165845238Y-102648390D02*
X165892857Y-102600771D01*
X165892857Y-102600771D02*
X165988095Y-102553152D01*
X165988095Y-102553152D02*
X166130952Y-102553152D01*
X166130952Y-102553152D02*
X166226190Y-102600771D01*
X166226190Y-102600771D02*
X166273809Y-102648390D01*
X166273809Y-102648390D02*
X166321428Y-102743628D01*
X166321428Y-102743628D02*
X166321428Y-103029342D01*
X166321428Y-103029342D02*
X166273809Y-103124580D01*
X166273809Y-103124580D02*
X166226190Y-103172200D01*
X166226190Y-103172200D02*
X166130952Y-103219819D01*
X166130952Y-103219819D02*
X165988095Y-103219819D01*
X166654762Y-102553152D02*
X166845238Y-103219819D01*
X166845238Y-103219819D02*
X167035714Y-102743628D01*
X167035714Y-102743628D02*
X167226190Y-103219819D01*
X167226190Y-103219819D02*
X167416666Y-102553152D01*
X167797619Y-102553152D02*
X167797619Y-103219819D01*
X167797619Y-102648390D02*
X167845238Y-102600771D01*
X167845238Y-102600771D02*
X167940476Y-102553152D01*
X167940476Y-102553152D02*
X168083333Y-102553152D01*
X168083333Y-102553152D02*
X168178571Y-102600771D01*
X168178571Y-102600771D02*
X168226190Y-102696009D01*
X168226190Y-102696009D02*
X168226190Y-103219819D01*
X169226190Y-103219819D02*
X168654762Y-103219819D01*
X168940476Y-103219819D02*
X168940476Y-102219819D01*
X168940476Y-102219819D02*
X168845238Y-102362676D01*
X168845238Y-102362676D02*
X168750000Y-102457914D01*
X168750000Y-102457914D02*
X168654762Y-102505533D01*
X164583333Y-80799819D02*
X164250000Y-80323628D01*
X164011905Y-80799819D02*
X164011905Y-79799819D01*
X164011905Y-79799819D02*
X164392857Y-79799819D01*
X164392857Y-79799819D02*
X164488095Y-79847438D01*
X164488095Y-79847438D02*
X164535714Y-79895057D01*
X164535714Y-79895057D02*
X164583333Y-79990295D01*
X164583333Y-79990295D02*
X164583333Y-80133152D01*
X164583333Y-80133152D02*
X164535714Y-80228390D01*
X164535714Y-80228390D02*
X164488095Y-80276009D01*
X164488095Y-80276009D02*
X164392857Y-80323628D01*
X164392857Y-80323628D02*
X164011905Y-80323628D01*
X165583333Y-80704580D02*
X165535714Y-80752200D01*
X165535714Y-80752200D02*
X165392857Y-80799819D01*
X165392857Y-80799819D02*
X165297619Y-80799819D01*
X165297619Y-80799819D02*
X165154762Y-80752200D01*
X165154762Y-80752200D02*
X165059524Y-80656961D01*
X165059524Y-80656961D02*
X165011905Y-80561723D01*
X165011905Y-80561723D02*
X164964286Y-80371247D01*
X164964286Y-80371247D02*
X164964286Y-80228390D01*
X164964286Y-80228390D02*
X165011905Y-80037914D01*
X165011905Y-80037914D02*
X165059524Y-79942676D01*
X165059524Y-79942676D02*
X165154762Y-79847438D01*
X165154762Y-79847438D02*
X165297619Y-79799819D01*
X165297619Y-79799819D02*
X165392857Y-79799819D01*
X165392857Y-79799819D02*
X165535714Y-79847438D01*
X165535714Y-79847438D02*
X165583333Y-79895057D01*
X166535714Y-80799819D02*
X165964286Y-80799819D01*
X166250000Y-80799819D02*
X166250000Y-79799819D01*
X166250000Y-79799819D02*
X166154762Y-79942676D01*
X166154762Y-79942676D02*
X166059524Y-80037914D01*
X166059524Y-80037914D02*
X165964286Y-80085533D01*
D11*
%TO.C,G\u002A\u002A\u002A*%
G36*
X144181148Y-98690054D02*
G01*
X144285385Y-98763102D01*
X144416329Y-98874293D01*
X144471060Y-98925471D01*
X144614209Y-99059401D01*
X144713387Y-99138783D01*
X144788639Y-99174954D01*
X144860007Y-99179250D01*
X144906532Y-99171804D01*
X145052795Y-99167112D01*
X145214640Y-99195373D01*
X145233216Y-99201123D01*
X145394960Y-99227960D01*
X145531450Y-99184710D01*
X145658308Y-99063537D01*
X145737611Y-98948048D01*
X145784269Y-98874439D01*
X145827830Y-98827758D01*
X145885824Y-98806856D01*
X145975783Y-98810583D01*
X146115238Y-98837791D01*
X146321721Y-98887331D01*
X146393865Y-98905030D01*
X146746455Y-99019228D01*
X147066834Y-99176655D01*
X147339615Y-99366815D01*
X147549412Y-99579213D01*
X147669180Y-99774955D01*
X147755055Y-100030175D01*
X147787375Y-100266566D01*
X147768948Y-100471032D01*
X147702581Y-100630473D01*
X147591080Y-100731794D01*
X147457546Y-100762477D01*
X147377628Y-100791244D01*
X147267807Y-100863622D01*
X147223271Y-100900271D01*
X147085825Y-100997284D01*
X146942549Y-101035037D01*
X146867015Y-101038065D01*
X146562128Y-100994483D01*
X146244000Y-100866286D01*
X146111133Y-100789332D01*
X145996878Y-100720058D01*
X145917629Y-100677283D01*
X145899194Y-100670615D01*
X145885781Y-100712036D01*
X145877118Y-100818308D01*
X145875316Y-100908864D01*
X145875316Y-101147114D01*
X145738750Y-101016276D01*
X145642735Y-100892883D01*
X145555656Y-100729883D01*
X145525443Y-100651715D01*
X145448676Y-100435725D01*
X145430753Y-100391530D01*
X145831395Y-100391530D01*
X145871220Y-100436526D01*
X145971279Y-100507779D01*
X146108730Y-100592340D01*
X146260733Y-100677259D01*
X146404444Y-100749589D01*
X146517022Y-100796379D01*
X146564285Y-100807002D01*
X146675449Y-100778986D01*
X146799005Y-100708951D01*
X146816907Y-100695004D01*
X146954701Y-100582056D01*
X146702079Y-100579218D01*
X146521539Y-100561668D01*
X146307598Y-100518932D01*
X146139421Y-100470724D01*
X145988583Y-100422610D01*
X145878911Y-100393910D01*
X145831830Y-100390132D01*
X145831395Y-100391530D01*
X145430753Y-100391530D01*
X145365450Y-100230502D01*
X145284835Y-100055896D01*
X145230854Y-99958680D01*
X145817726Y-99958680D01*
X146094000Y-99993412D01*
X146283141Y-100027098D01*
X146507892Y-100081258D01*
X146708419Y-100140643D01*
X146894576Y-100202044D01*
X147011847Y-100237532D01*
X147078479Y-100250289D01*
X147112720Y-100243497D01*
X147132818Y-100220336D01*
X147136023Y-100215191D01*
X147128273Y-100147753D01*
X147059239Y-100048982D01*
X146946891Y-99933995D01*
X146809198Y-99817909D01*
X146664131Y-99715839D01*
X146529659Y-99642902D01*
X146423753Y-99614215D01*
X146421577Y-99614195D01*
X146331258Y-99639445D01*
X146198291Y-99705262D01*
X146068056Y-99786437D01*
X145817726Y-99958680D01*
X145230854Y-99958680D01*
X145215903Y-99931755D01*
X145173003Y-99880564D01*
X145072490Y-99851357D01*
X144934278Y-99846752D01*
X144809539Y-99868100D01*
X144802164Y-99870781D01*
X144758870Y-99924635D01*
X144697649Y-100051073D01*
X144625469Y-100234254D01*
X144564694Y-100410474D01*
X144479980Y-100656645D01*
X144407879Y-100831348D01*
X144339692Y-100952472D01*
X144266719Y-101037905D01*
X144253916Y-101049548D01*
X144136785Y-101143345D01*
X144069343Y-101169851D01*
X144040948Y-101131046D01*
X144038064Y-101089771D01*
X144052966Y-100993645D01*
X144090195Y-100858136D01*
X144105302Y-100813111D01*
X144172540Y-100622540D01*
X144022984Y-100736611D01*
X143755529Y-100904282D01*
X143463710Y-101026104D01*
X143179841Y-101089765D01*
X143079292Y-101096161D01*
X142917944Y-101089176D01*
X142783893Y-101068569D01*
X142727966Y-101049413D01*
X142632278Y-101025847D01*
X142513347Y-101065705D01*
X142507486Y-101068708D01*
X142393292Y-101101147D01*
X142242748Y-101111581D01*
X142088282Y-101101874D01*
X141962327Y-101073892D01*
X141899600Y-101033762D01*
X141909367Y-100995687D01*
X141929662Y-100992134D01*
X142009341Y-100963338D01*
X142114285Y-100893181D01*
X142214839Y-100806006D01*
X142263459Y-100747635D01*
X142849847Y-100747635D01*
X142861305Y-100787642D01*
X142909813Y-100837245D01*
X143010381Y-100850004D01*
X143173732Y-100825522D01*
X143395173Y-100767892D01*
X143699637Y-100672240D01*
X143916723Y-100587141D01*
X144045176Y-100513164D01*
X144083996Y-100455109D01*
X144065956Y-100404889D01*
X144049547Y-100405104D01*
X143797358Y-100516684D01*
X143548419Y-100582327D01*
X143267373Y-100613898D01*
X143057551Y-100631443D01*
X142926646Y-100655892D01*
X142861723Y-100692778D01*
X142849847Y-100747635D01*
X142263459Y-100747635D01*
X142281350Y-100726156D01*
X142292676Y-100694131D01*
X142265310Y-100652721D01*
X142172550Y-100650558D01*
X142138713Y-100655444D01*
X142034710Y-100661949D01*
X141974624Y-100630330D01*
X141952315Y-100546202D01*
X141961640Y-100395180D01*
X141972595Y-100317080D01*
X142640443Y-100317080D01*
X142822527Y-100285532D01*
X142953038Y-100248986D01*
X143128645Y-100181805D01*
X143313984Y-100097683D01*
X143335878Y-100086758D01*
X143566077Y-99983189D01*
X143755614Y-99929405D01*
X143895943Y-99916140D01*
X144026886Y-99912390D01*
X144077377Y-99902247D01*
X144058828Y-99879592D01*
X144012284Y-99853751D01*
X143901612Y-99810386D01*
X143745460Y-99765890D01*
X143657150Y-99746018D01*
X143386307Y-99722160D01*
X143155645Y-99772586D01*
X142953658Y-99902702D01*
X142768835Y-100117914D01*
X142725127Y-100183811D01*
X142640443Y-100317080D01*
X141972595Y-100317080D01*
X141977949Y-100278913D01*
X142027889Y-100033872D01*
X142102464Y-99820514D01*
X142209598Y-99632892D01*
X142357213Y-99465056D01*
X142553233Y-99311059D01*
X142805580Y-99164951D01*
X143122177Y-99020785D01*
X143510948Y-98872612D01*
X143979814Y-98714484D01*
X144122357Y-98668934D01*
X144181148Y-98690054D01*
G37*
G36*
X145962274Y-101298195D02*
G01*
X146033826Y-101430230D01*
X146034492Y-101431633D01*
X146080906Y-101571942D01*
X146088176Y-101693792D01*
X146085899Y-101704912D01*
X146007728Y-101838602D01*
X145857524Y-101946952D01*
X145653070Y-102023913D01*
X145412147Y-102063437D01*
X145152537Y-102059476D01*
X145074329Y-102049011D01*
X144919005Y-102030343D01*
X144789784Y-102037020D01*
X144645962Y-102074222D01*
X144518646Y-102119753D01*
X144367400Y-102175699D01*
X144253507Y-102215988D01*
X144200670Y-102232246D01*
X144200113Y-102232278D01*
X144162927Y-102199244D01*
X144093790Y-102116699D01*
X144067845Y-102083002D01*
X143966447Y-101918178D01*
X143898518Y-101747249D01*
X143871030Y-101595301D01*
X143890958Y-101487422D01*
X143899061Y-101475870D01*
X143965909Y-101415029D01*
X144009897Y-101429326D01*
X144036227Y-101524763D01*
X144047147Y-101646654D01*
X144058978Y-101787803D01*
X144082685Y-101861690D01*
X144132195Y-101892894D01*
X144192278Y-101902804D01*
X144315800Y-101897900D01*
X144444357Y-101865489D01*
X144546102Y-101816895D01*
X144589186Y-101763443D01*
X144589240Y-101761652D01*
X144550318Y-101736212D01*
X144455452Y-101742309D01*
X144320722Y-101742941D01*
X144253291Y-101683389D01*
X144258634Y-101571413D01*
X144287297Y-101503932D01*
X144375531Y-101379347D01*
X144477911Y-101334551D01*
X144606564Y-101368686D01*
X144760318Y-101470434D01*
X144887059Y-101560196D01*
X144993627Y-101620030D01*
X145042671Y-101635172D01*
X145114073Y-101604898D01*
X145219041Y-101527473D01*
X145286394Y-101466419D01*
X145392950Y-101368985D01*
X145465828Y-101328411D01*
X145533023Y-101333480D01*
X145575402Y-101350606D01*
X145671371Y-101421580D01*
X145681100Y-101513857D01*
X145624155Y-101614910D01*
X145572552Y-101712915D01*
X145556264Y-101805507D01*
X145578926Y-101860451D01*
X145595972Y-101864828D01*
X145729751Y-101823318D01*
X145834736Y-101714137D01*
X145896738Y-101560307D01*
X145901569Y-101384851D01*
X145899417Y-101372449D01*
X145889782Y-101266988D01*
X145912497Y-101243009D01*
X145962274Y-101298195D01*
G37*
G36*
X147793402Y-101533190D02*
G01*
X147787079Y-101604978D01*
X147750624Y-101744934D01*
X147690091Y-101936788D01*
X147611534Y-102164274D01*
X147521004Y-102411123D01*
X147424557Y-102661066D01*
X147328244Y-102897835D01*
X147238120Y-103105163D01*
X147160237Y-103266780D01*
X147124551Y-103330722D01*
X147037507Y-103473855D01*
X147059026Y-103025309D01*
X147065875Y-102782405D01*
X147057816Y-102606656D01*
X147032876Y-102474271D01*
X147007311Y-102401713D01*
X146934076Y-102226662D01*
X147075297Y-102149091D01*
X147353101Y-101974458D01*
X147563186Y-101795285D01*
X147678613Y-101648152D01*
X147741199Y-101558358D01*
X147784748Y-101525608D01*
X147793402Y-101533190D01*
G37*
G36*
X145538790Y-102497741D02*
G01*
X145521708Y-102594370D01*
X145507080Y-102648399D01*
X145467734Y-102819732D01*
X145471474Y-102920898D01*
X145519973Y-102963730D01*
X145552181Y-102967179D01*
X145641909Y-102929660D01*
X145723695Y-102812628D01*
X145789789Y-102648342D01*
X145810553Y-102604189D01*
X145816753Y-102642264D01*
X145809043Y-102766844D01*
X145808631Y-102771649D01*
X145800062Y-102913331D01*
X145811451Y-102989437D01*
X145851085Y-103025510D01*
X145895537Y-103039491D01*
X146038436Y-103033129D01*
X146193547Y-102961151D01*
X146331476Y-102839842D01*
X146382419Y-102769741D01*
X146440452Y-102683547D01*
X146467005Y-102673543D01*
X146472079Y-102714557D01*
X146449184Y-102814182D01*
X146393075Y-102932536D01*
X146322614Y-103038184D01*
X146256663Y-103099690D01*
X146237817Y-103104973D01*
X146212162Y-103125837D01*
X146242766Y-103173870D01*
X146323169Y-103234228D01*
X146418461Y-103222668D01*
X146537544Y-103145668D01*
X146639372Y-103078097D01*
X146679944Y-103074959D01*
X146652095Y-103128687D01*
X146586584Y-103197462D01*
X146471451Y-103305623D01*
X146595358Y-103434954D01*
X146663663Y-103523791D01*
X146653978Y-103565097D01*
X146567359Y-103558148D01*
X146463930Y-103525080D01*
X146334144Y-103483197D01*
X146231283Y-103455308D01*
X146140395Y-103443606D01*
X146105570Y-103485576D01*
X146098717Y-103551928D01*
X146092114Y-103629031D01*
X146081584Y-103618632D01*
X146072994Y-103579104D01*
X146039013Y-103485218D01*
X145969931Y-103420422D01*
X145850530Y-103378603D01*
X145665591Y-103353647D01*
X145484678Y-103342746D01*
X145256679Y-103337158D01*
X145079318Y-103347280D01*
X144911959Y-103378426D01*
X144713969Y-103435909D01*
X144674149Y-103448745D01*
X144426102Y-103540672D01*
X144260595Y-103631429D01*
X144168720Y-103728582D01*
X144141569Y-103839693D01*
X144147956Y-103895571D01*
X144160187Y-103997983D01*
X144140821Y-104015675D01*
X144092329Y-103947093D01*
X144085612Y-103934755D01*
X144045688Y-103818709D01*
X144038064Y-103755526D01*
X144031706Y-103702788D01*
X143997253Y-103686611D01*
X143911641Y-103703850D01*
X143831374Y-103727343D01*
X143693805Y-103758629D01*
X143629891Y-103749811D01*
X143644066Y-103703001D01*
X143689311Y-103659691D01*
X143713375Y-103620384D01*
X143692976Y-103563687D01*
X143618985Y-103473749D01*
X143528552Y-103380666D01*
X143415232Y-103257380D01*
X143334296Y-103150307D01*
X143303165Y-103082512D01*
X143303164Y-103082260D01*
X143329225Y-103065073D01*
X143405459Y-103121008D01*
X143476453Y-103191407D01*
X143625336Y-103320962D01*
X143769484Y-103399564D01*
X143890170Y-103419430D01*
X143954853Y-103390282D01*
X143975005Y-103317622D01*
X143944978Y-103182152D01*
X143931709Y-103143320D01*
X143880243Y-102986486D01*
X143839109Y-102839964D01*
X143831309Y-102806419D01*
X143821496Y-102721066D01*
X143839566Y-102709747D01*
X143876312Y-102762455D01*
X143922531Y-102869184D01*
X143942382Y-102927176D01*
X143998685Y-103057701D01*
X144066262Y-103157200D01*
X144074633Y-103165397D01*
X144140017Y-103210618D01*
X144201918Y-103197119D01*
X144259080Y-103157422D01*
X144330548Y-103086758D01*
X144335098Y-103008210D01*
X144316103Y-102950660D01*
X144280907Y-102820987D01*
X144270965Y-102723050D01*
X144282525Y-102683474D01*
X144315090Y-102722722D01*
X144360944Y-102817902D01*
X144428239Y-102946291D01*
X144498151Y-103002129D01*
X144599144Y-103001016D01*
X144666016Y-102985103D01*
X144731428Y-102952751D01*
X144751965Y-102884843D01*
X144745092Y-102790522D01*
X144724427Y-102622694D01*
X144802961Y-102771971D01*
X144860762Y-102864040D01*
X144928819Y-102907749D01*
X145041849Y-102920713D01*
X145097161Y-102921248D01*
X145221549Y-102917778D01*
X145296165Y-102893575D01*
X145348966Y-102827952D01*
X145407910Y-102700221D01*
X145413542Y-102687131D01*
X145480345Y-102545927D01*
X145523548Y-102482195D01*
X145538790Y-102497741D01*
G37*
G36*
X145712143Y-103819062D02*
G01*
X145877903Y-103826986D01*
X145986242Y-103842875D01*
X146054346Y-103868921D01*
X146088550Y-103895629D01*
X146130148Y-103946810D01*
X146127287Y-103994794D01*
X146070884Y-104063637D01*
X145998862Y-104133179D01*
X145754640Y-104318045D01*
X145470127Y-104460447D01*
X145171641Y-104551268D01*
X144885501Y-104581389D01*
X144742026Y-104568622D01*
X144528772Y-104511469D01*
X144353154Y-104427239D01*
X144239593Y-104328351D01*
X144225336Y-104305812D01*
X144210846Y-104196095D01*
X144287536Y-104091047D01*
X144455626Y-103990458D01*
X144623664Y-103924006D01*
X144786030Y-103873967D01*
X144943336Y-103841915D01*
X145123994Y-103824262D01*
X145356414Y-103817421D01*
X145471777Y-103816908D01*
X145712143Y-103819062D01*
G37*
G36*
X145492472Y-94863993D02*
G01*
X145628220Y-94936624D01*
X145803838Y-95044247D01*
X146003229Y-95175879D01*
X146210294Y-95320533D01*
X146408936Y-95467223D01*
X146583055Y-95604963D01*
X146716554Y-95722769D01*
X146731025Y-95736985D01*
X146883635Y-95871648D01*
X147083294Y-96023380D01*
X147295643Y-96166695D01*
X147377664Y-96216672D01*
X147571593Y-96336811D01*
X147754723Y-96461356D01*
X147899220Y-96570917D01*
X147948736Y-96614457D01*
X148049466Y-96720964D01*
X148093864Y-96806656D01*
X148097541Y-96907842D01*
X148092684Y-96949294D01*
X148097336Y-97166886D01*
X148171728Y-97401355D01*
X148320479Y-97666687D01*
X148338616Y-97693962D01*
X148425600Y-97833538D01*
X148458681Y-97918335D01*
X148443403Y-97963614D01*
X148437960Y-97967517D01*
X148363945Y-98002146D01*
X148344122Y-98005897D01*
X148316912Y-98046634D01*
X148310336Y-98148930D01*
X148322665Y-98285243D01*
X148352169Y-98428035D01*
X148375120Y-98499432D01*
X148410813Y-98633910D01*
X148441455Y-98819944D01*
X148460401Y-99017088D01*
X148499470Y-99321723D01*
X148577108Y-99545298D01*
X148638738Y-99700163D01*
X148688271Y-99890942D01*
X148704842Y-99993128D01*
X148718817Y-100143461D01*
X148713590Y-100223699D01*
X148685805Y-100254231D01*
X148661357Y-100257233D01*
X148615917Y-100270132D01*
X148583004Y-100317858D01*
X148559625Y-100413952D01*
X148542787Y-100571957D01*
X148529497Y-100805414D01*
X148526855Y-100865823D01*
X148509867Y-101267721D01*
X148650910Y-101268425D01*
X148775297Y-101276407D01*
X148853309Y-101309700D01*
X148893399Y-101384578D01*
X148904024Y-101517311D01*
X148893638Y-101724172D01*
X148892911Y-101734152D01*
X148866069Y-101974160D01*
X148822705Y-102235370D01*
X148772190Y-102461351D01*
X148772033Y-102461935D01*
X148724893Y-102671301D01*
X148691032Y-102886854D01*
X148677903Y-103059041D01*
X148657420Y-103266405D01*
X148589461Y-103437968D01*
X148460427Y-103598213D01*
X148301392Y-103736848D01*
X148163786Y-103833426D01*
X148056314Y-103873315D01*
X147963249Y-103871354D01*
X147823515Y-103848746D01*
X147713537Y-104292140D01*
X147637584Y-104644736D01*
X147593591Y-104976238D01*
X147581732Y-105308456D01*
X147602177Y-105663200D01*
X147655099Y-106062281D01*
X147730768Y-106478037D01*
X147782146Y-106739903D01*
X147825759Y-106968350D01*
X147858979Y-107149096D01*
X147879179Y-107267858D01*
X147883867Y-107310310D01*
X147841943Y-107332418D01*
X147727794Y-107391308D01*
X147551038Y-107482051D01*
X147321298Y-107599718D01*
X147048193Y-107739381D01*
X146741345Y-107896111D01*
X146518354Y-108009905D01*
X145163381Y-108701105D01*
X144474412Y-108450979D01*
X144182376Y-108347099D01*
X143837597Y-108227829D01*
X143475045Y-108105073D01*
X143129691Y-107990737D01*
X142981645Y-107942774D01*
X142726456Y-107860620D01*
X142503525Y-107788432D01*
X142326754Y-107730747D01*
X142210045Y-107692101D01*
X142167364Y-107677087D01*
X142168622Y-107631687D01*
X142174701Y-107583273D01*
X142499366Y-107583273D01*
X143555786Y-107956771D01*
X143851011Y-108060710D01*
X144118202Y-108153945D01*
X144344944Y-108232211D01*
X144518822Y-108291244D01*
X144627423Y-108326780D01*
X144658137Y-108335414D01*
X144709911Y-108303079D01*
X144773960Y-108217488D01*
X144779191Y-108208492D01*
X144880642Y-108097375D01*
X145051807Y-108011427D01*
X145089227Y-107998401D01*
X145219689Y-107947907D01*
X145304985Y-107901158D01*
X145324140Y-107878135D01*
X145294038Y-107824317D01*
X145216798Y-107731753D01*
X145150796Y-107662550D01*
X144988525Y-107535940D01*
X144857505Y-107468445D01*
X146956918Y-107468445D01*
X147006918Y-107450817D01*
X147117490Y-107404359D01*
X147265782Y-107338706D01*
X147282578Y-107331106D01*
X147585472Y-107193767D01*
X147552724Y-106929207D01*
X147524561Y-106745209D01*
X147496267Y-106650852D01*
X147466890Y-106643918D01*
X147447317Y-106683666D01*
X147412473Y-106748448D01*
X147338175Y-106868155D01*
X147237375Y-107022262D01*
X147179226Y-107108530D01*
X147076338Y-107262881D01*
X146999733Y-107384123D01*
X146959507Y-107455908D01*
X146956918Y-107468445D01*
X144857505Y-107468445D01*
X144795307Y-107436404D01*
X144608976Y-107381823D01*
X144545750Y-107376582D01*
X144487778Y-107346510D01*
X144374204Y-107262638D01*
X144215982Y-107134480D01*
X144024067Y-106971550D01*
X143809414Y-106783363D01*
X143582978Y-106579432D01*
X143355715Y-106369273D01*
X143138580Y-106162399D01*
X143065075Y-106090636D01*
X142620296Y-105653166D01*
X142596196Y-105791456D01*
X142580977Y-105912403D01*
X142563798Y-106102074D01*
X142546127Y-106337397D01*
X142529433Y-106595297D01*
X142515184Y-106852700D01*
X142504851Y-107086533D01*
X142499900Y-107273722D01*
X142499678Y-107307685D01*
X142499366Y-107583273D01*
X142174701Y-107583273D01*
X142182473Y-107521383D01*
X142201646Y-107396720D01*
X142217243Y-107267787D01*
X142234895Y-107065624D01*
X142253296Y-106808801D01*
X142271141Y-106515889D01*
X142287124Y-106205458D01*
X142290337Y-106134953D01*
X142304587Y-105792784D01*
X142312791Y-105523314D01*
X142314405Y-105307544D01*
X142308889Y-105126476D01*
X142295699Y-104961110D01*
X142274293Y-104792449D01*
X142247074Y-104619221D01*
X142199409Y-104358704D01*
X142147058Y-104118125D01*
X142094221Y-103912951D01*
X142045101Y-103758647D01*
X142003899Y-103670680D01*
X141985412Y-103656148D01*
X141935918Y-103680117D01*
X141847026Y-103738308D01*
X141840055Y-103743246D01*
X141662477Y-103827624D01*
X141473874Y-103849493D01*
X141306346Y-103806659D01*
X141267095Y-103782413D01*
X141219781Y-103712756D01*
X141161715Y-103575623D01*
X141158731Y-103566542D01*
X141338217Y-103566542D01*
X141355971Y-103645648D01*
X141395303Y-103683541D01*
X141505785Y-103713859D01*
X141634171Y-103681852D01*
X141747361Y-103601598D01*
X141805891Y-103508906D01*
X141826030Y-103389033D01*
X141815036Y-103307190D01*
X141787528Y-103255947D01*
X141757471Y-103278307D01*
X141726633Y-103336264D01*
X141639823Y-103430989D01*
X141519646Y-103464047D01*
X141396153Y-103500045D01*
X141338217Y-103566542D01*
X141158731Y-103566542D01*
X141101792Y-103393276D01*
X141079017Y-103311618D01*
X141014211Y-103086133D01*
X140939706Y-102855714D01*
X140869178Y-102662065D01*
X140853099Y-102622694D01*
X140763859Y-102367939D01*
X140699498Y-102097033D01*
X140689059Y-102018106D01*
X141097239Y-102018106D01*
X141098714Y-102179250D01*
X141110612Y-102369764D01*
X141131096Y-102569283D01*
X141158328Y-102757441D01*
X141190469Y-102913870D01*
X141225683Y-103018204D01*
X141238830Y-103039177D01*
X141325594Y-103091550D01*
X141402640Y-103104973D01*
X141471898Y-103094639D01*
X141503526Y-103046888D01*
X141511750Y-102936592D01*
X141511844Y-102912061D01*
X141506321Y-102794911D01*
X141486404Y-102756592D01*
X141456726Y-102774267D01*
X141393144Y-102822313D01*
X141356915Y-102804671D01*
X141344996Y-102713497D01*
X141354346Y-102540945D01*
X141356593Y-102516114D01*
X141368885Y-102339847D01*
X141361878Y-102220893D01*
X141330003Y-102125733D01*
X141276534Y-102034404D01*
X141202828Y-101931649D01*
X141146081Y-101871680D01*
X141132911Y-101865397D01*
X141108025Y-101906700D01*
X141097239Y-102018106D01*
X140689059Y-102018106D01*
X140665683Y-101841358D01*
X140668085Y-101632296D01*
X140670795Y-101613546D01*
X140725562Y-101461239D01*
X140801532Y-101359071D01*
X141097173Y-101359071D01*
X141162319Y-101453821D01*
X141164944Y-101456953D01*
X141263632Y-101587497D01*
X141346209Y-101718087D01*
X141353932Y-101732540D01*
X141413639Y-101834665D01*
X141448183Y-101852144D01*
X141463482Y-101782458D01*
X141465913Y-101684849D01*
X141453499Y-101556039D01*
X141399824Y-101472553D01*
X141311214Y-101409261D01*
X141175340Y-101335578D01*
X141102753Y-101319252D01*
X141097173Y-101359071D01*
X140801532Y-101359071D01*
X140824349Y-101328385D01*
X140943511Y-101241210D01*
X141024346Y-101221405D01*
X141078927Y-101211433D01*
X141110037Y-101167989D01*
X141125984Y-101069958D01*
X141133117Y-100944915D01*
X141131672Y-100766004D01*
X141102523Y-100617297D01*
X141035043Y-100452691D01*
X141006145Y-100394125D01*
X140920000Y-100233290D01*
X140856893Y-100147924D01*
X140804419Y-100128748D01*
X140750170Y-100166483D01*
X140731012Y-100188336D01*
X140664708Y-100246076D01*
X140633525Y-100257233D01*
X140601068Y-100218162D01*
X140594483Y-100119627D01*
X140611610Y-99989642D01*
X140650285Y-99856224D01*
X140667585Y-99815847D01*
X140726284Y-99717406D01*
X140804155Y-99657983D01*
X140929695Y-99620873D01*
X141029038Y-99603973D01*
X141108591Y-99559021D01*
X141128168Y-99469422D01*
X141095890Y-99352188D01*
X141019875Y-99224331D01*
X140958591Y-99157645D01*
X141649160Y-99157645D01*
X141678173Y-99420368D01*
X141696434Y-99571673D01*
X141724161Y-99784561D01*
X141757456Y-100029729D01*
X141789460Y-100257233D01*
X141871736Y-100831374D01*
X141760687Y-100977586D01*
X141687445Y-101102385D01*
X141655459Y-101243456D01*
X141662648Y-101424339D01*
X141701695Y-101644394D01*
X141775742Y-101875529D01*
X141890976Y-102100291D01*
X142033787Y-102301848D01*
X142190564Y-102463371D01*
X142347696Y-102568029D01*
X142474301Y-102599729D01*
X142561034Y-102608221D01*
X142624239Y-102644207D01*
X142673801Y-102723455D01*
X142719604Y-102861730D01*
X142771188Y-103073295D01*
X142826989Y-103295621D01*
X142899368Y-103553894D01*
X142974052Y-103797535D01*
X142985057Y-103831161D01*
X143059020Y-104060968D01*
X143101473Y-104213054D01*
X143112751Y-104295865D01*
X143093188Y-104317847D01*
X143043118Y-104287445D01*
X143001661Y-104250484D01*
X142875484Y-104106653D01*
X142718342Y-103885024D01*
X142534659Y-103592570D01*
X142328861Y-103236267D01*
X142151704Y-102910749D01*
X142042008Y-102707291D01*
X141951270Y-102544594D01*
X141886096Y-102434043D01*
X141853096Y-102387021D01*
X141851221Y-102393038D01*
X141873143Y-102479464D01*
X141910303Y-102626876D01*
X141955615Y-102807151D01*
X141967645Y-102855089D01*
X142067581Y-103214351D01*
X142193758Y-103608545D01*
X142335381Y-104007456D01*
X142481651Y-104380872D01*
X142621772Y-104698577D01*
X142639620Y-104735533D01*
X142745271Y-104941470D01*
X142834050Y-105084727D01*
X142923021Y-105187992D01*
X143029249Y-105273949D01*
X143061023Y-105295742D01*
X143206135Y-105383607D01*
X143341457Y-105450289D01*
X143404887Y-105472556D01*
X143529575Y-105502544D01*
X143504095Y-105256832D01*
X143478615Y-105011121D01*
X143700925Y-105340943D01*
X143845633Y-105541924D01*
X143974645Y-105679952D01*
X144113306Y-105774257D01*
X144286965Y-105844068D01*
X144412053Y-105880469D01*
X144625198Y-105930947D01*
X144776257Y-105945089D01*
X144888582Y-105920305D01*
X144985527Y-105854005D01*
X145028270Y-105812118D01*
X145162969Y-105671523D01*
X145264739Y-105799155D01*
X145330119Y-105873876D01*
X145389990Y-105903633D01*
X145478348Y-105895808D01*
X145586464Y-105869008D01*
X145802242Y-105795095D01*
X145991889Y-105698498D01*
X146136773Y-105591486D01*
X146218261Y-105486331D01*
X146229086Y-105445834D01*
X146236059Y-105351992D01*
X146247164Y-105192910D01*
X146260572Y-104995014D01*
X146268455Y-104876347D01*
X146286197Y-104662278D01*
X146306015Y-104537328D01*
X146328915Y-104501983D01*
X146355907Y-104556731D01*
X146387998Y-104702060D01*
X146426198Y-104938458D01*
X146428437Y-104953707D01*
X146458945Y-105132369D01*
X146490818Y-105270215D01*
X146518916Y-105346691D01*
X146528957Y-105355606D01*
X146606384Y-105325411D01*
X146730053Y-105244388D01*
X146881463Y-105126875D01*
X147042113Y-104987213D01*
X147190522Y-104842844D01*
X147386435Y-104600891D01*
X147498503Y-104368083D01*
X147667801Y-103744627D01*
X147752236Y-103325519D01*
X148162476Y-103325519D01*
X148179885Y-103325632D01*
X148238075Y-103275038D01*
X148306130Y-103173321D01*
X148321864Y-103143358D01*
X148355949Y-103039296D01*
X148386853Y-102882172D01*
X148413005Y-102692202D01*
X148432831Y-102489603D01*
X148444356Y-102301175D01*
X148637331Y-102301175D01*
X148640721Y-102361132D01*
X148668895Y-102336567D01*
X148677124Y-102324141D01*
X148706407Y-102232622D01*
X148717117Y-102103854D01*
X148716918Y-102094484D01*
X148712187Y-101933725D01*
X148677124Y-102071519D01*
X148649795Y-102202693D01*
X148637331Y-102301175D01*
X148444356Y-102301175D01*
X148444759Y-102294592D01*
X148447216Y-102127387D01*
X148438628Y-102008204D01*
X148417424Y-101957261D01*
X148414178Y-101956691D01*
X148340538Y-101980352D01*
X148294903Y-102058304D01*
X148274898Y-102200998D01*
X148278149Y-102418886D01*
X148285090Y-102524922D01*
X148298471Y-102735205D01*
X148299008Y-102880744D01*
X148283856Y-102988113D01*
X148250172Y-103083885D01*
X148218191Y-103150160D01*
X148163404Y-103273900D01*
X148162476Y-103325519D01*
X147752236Y-103325519D01*
X147805583Y-103060725D01*
X147907270Y-102343753D01*
X147968285Y-101621090D01*
X147971879Y-101550336D01*
X148309674Y-101550336D01*
X148344024Y-101552821D01*
X148429055Y-101519378D01*
X148537740Y-101463072D01*
X148643053Y-101396966D01*
X148673297Y-101374573D01*
X148649020Y-101363589D01*
X148573232Y-101359584D01*
X148454631Y-101388408D01*
X148355327Y-101458175D01*
X148309939Y-101543830D01*
X148309674Y-101550336D01*
X147971879Y-101550336D01*
X147972819Y-101531826D01*
X147985819Y-101278345D01*
X147998588Y-101102758D01*
X148013583Y-100991137D01*
X148033263Y-100929553D01*
X148060087Y-100904078D01*
X148084274Y-100900271D01*
X148139286Y-100882019D01*
X148152401Y-100811386D01*
X148146618Y-100750994D01*
X148089283Y-100324191D01*
X148036084Y-99956717D01*
X147982281Y-99616469D01*
X147956320Y-99461988D01*
X147879275Y-99011228D01*
X147619427Y-98773019D01*
X147470479Y-98643282D01*
X147325463Y-98528233D01*
X147214749Y-98451908D01*
X147211039Y-98449757D01*
X147062499Y-98364704D01*
X147094195Y-98576068D01*
X147104193Y-98721356D01*
X147079550Y-98784813D01*
X147021797Y-98764576D01*
X146977344Y-98718146D01*
X146941414Y-98614751D01*
X146945947Y-98487992D01*
X146955475Y-98385082D01*
X146928135Y-98320430D01*
X146844520Y-98262813D01*
X146787418Y-98232928D01*
X146674112Y-98185386D01*
X146508796Y-98127945D01*
X146318741Y-98068682D01*
X146131221Y-98015678D01*
X145973509Y-97977011D01*
X145872876Y-97960759D01*
X145868315Y-97960669D01*
X145848147Y-98001741D01*
X145839697Y-98106261D01*
X145841213Y-98178843D01*
X145842911Y-98312818D01*
X145823935Y-98380669D01*
X145775045Y-98407418D01*
X145755522Y-98410839D01*
X145698637Y-98411229D01*
X145673708Y-98376346D01*
X145672996Y-98284422D01*
X145680338Y-98199410D01*
X145701982Y-97974158D01*
X145512994Y-97948810D01*
X145357116Y-97938806D01*
X145164516Y-97940878D01*
X145051929Y-97948132D01*
X144901580Y-97963601D01*
X144824666Y-97982450D01*
X144803092Y-98015866D01*
X144818761Y-98075040D01*
X144824047Y-98089044D01*
X144841457Y-98207021D01*
X144790457Y-98270611D01*
X144697464Y-98274169D01*
X144630075Y-98225416D01*
X144610489Y-98120585D01*
X144601485Y-98029482D01*
X144558933Y-97996047D01*
X144454750Y-97999155D01*
X144449730Y-97999657D01*
X144321925Y-98019551D01*
X144148469Y-98055700D01*
X143951829Y-98102273D01*
X143754470Y-98153436D01*
X143578856Y-98203358D01*
X143447455Y-98246207D01*
X143382732Y-98276149D01*
X143381987Y-98276855D01*
X143374337Y-98343405D01*
X143417675Y-98436017D01*
X143466239Y-98550466D01*
X143445210Y-98626393D01*
X143373000Y-98649638D01*
X143320368Y-98609892D01*
X143280704Y-98514123D01*
X143280314Y-98512371D01*
X143245406Y-98406195D01*
X143205576Y-98347546D01*
X143149484Y-98354940D01*
X143034947Y-98394632D01*
X142883863Y-98456604D01*
X142718128Y-98530836D01*
X142559642Y-98607310D01*
X142430301Y-98676007D01*
X142352004Y-98726908D01*
X142338607Y-98744203D01*
X142374963Y-98787569D01*
X142407504Y-98804042D01*
X142469056Y-98865257D01*
X142459565Y-98953503D01*
X142408649Y-99016138D01*
X142353157Y-99042084D01*
X142308434Y-98997186D01*
X142286448Y-98952865D01*
X142231120Y-98866229D01*
X142181345Y-98833363D01*
X142119045Y-98857475D01*
X142007500Y-98920247D01*
X141889925Y-98995504D01*
X141649160Y-99157645D01*
X140958591Y-99157645D01*
X140908245Y-99102862D01*
X140769117Y-99004795D01*
X140734905Y-98987716D01*
X140710964Y-98974493D01*
X141652783Y-98974493D01*
X141780555Y-98899016D01*
X141910013Y-98816872D01*
X142013005Y-98744581D01*
X142079080Y-98682488D01*
X142095306Y-98612109D01*
X142070493Y-98494721D01*
X142070141Y-98493445D01*
X142041607Y-98325290D01*
X142069801Y-98219715D01*
X142135468Y-98172353D01*
X142175172Y-98176895D01*
X142195257Y-98240579D01*
X142200813Y-98379320D01*
X142206855Y-98507081D01*
X142222343Y-98583267D01*
X142235262Y-98593654D01*
X142288837Y-98567151D01*
X142405693Y-98509879D01*
X142566523Y-98431289D01*
X142688774Y-98371653D01*
X143107837Y-98167360D01*
X143036626Y-98018543D01*
X142996947Y-97913180D01*
X142991215Y-97845972D01*
X142994514Y-97840627D01*
X143060468Y-97825658D01*
X143129302Y-97869489D01*
X143165008Y-97947692D01*
X143165370Y-97956517D01*
X143185925Y-98044897D01*
X143210848Y-98075217D01*
X143270502Y-98075282D01*
X143400259Y-98055056D01*
X143581481Y-98018006D01*
X143795535Y-97967598D01*
X143813489Y-97963099D01*
X144037140Y-97908957D01*
X144236896Y-97864528D01*
X144391284Y-97834331D01*
X144478830Y-97822882D01*
X144479947Y-97822875D01*
X144563545Y-97802505D01*
X144588949Y-97724437D01*
X144589240Y-97708047D01*
X144610264Y-97618532D01*
X144684198Y-97593219D01*
X144752849Y-97611545D01*
X144751177Y-97681308D01*
X144749999Y-97685081D01*
X144741915Y-97725868D01*
X144758889Y-97752368D01*
X144816147Y-97767653D01*
X144928916Y-97774791D01*
X145112425Y-97776853D01*
X145205675Y-97776944D01*
X145420875Y-97776125D01*
X145560139Y-97771394D01*
X145639393Y-97759343D01*
X145674562Y-97736561D01*
X145681572Y-97699639D01*
X145679566Y-97675481D01*
X145701105Y-97583793D01*
X145750813Y-97556937D01*
X145807276Y-97559960D01*
X145812127Y-97618846D01*
X145803749Y-97656401D01*
X145790419Y-97711466D01*
X145794091Y-97749042D01*
X145830189Y-97777186D01*
X145914138Y-97803956D01*
X146061361Y-97837407D01*
X146211420Y-97869346D01*
X146381711Y-97914592D01*
X146580858Y-97980003D01*
X146700467Y-98025322D01*
X146968237Y-98134127D01*
X146994769Y-98001467D01*
X147026217Y-97907153D01*
X147063467Y-97868806D01*
X147116728Y-97906089D01*
X147140879Y-97986318D01*
X147123271Y-98062064D01*
X147116966Y-98069398D01*
X147071854Y-98157246D01*
X147116681Y-98235112D01*
X147174828Y-98269488D01*
X147258920Y-98323092D01*
X147384381Y-98420645D01*
X147526240Y-98542554D01*
X147547973Y-98562263D01*
X147815820Y-98807060D01*
X147781747Y-98602038D01*
X147734498Y-98373398D01*
X147666856Y-98116867D01*
X147587536Y-97860103D01*
X147505255Y-97630765D01*
X147428726Y-97456511D01*
X147409955Y-97422109D01*
X147254825Y-97215194D01*
X147043395Y-97036180D01*
X146766788Y-96880028D01*
X146416131Y-96741696D01*
X145997444Y-96619926D01*
X145741381Y-96565371D01*
X145547156Y-96554070D01*
X145393670Y-96589783D01*
X145259818Y-96676275D01*
X145167552Y-96767887D01*
X145074991Y-96878010D01*
X145015150Y-96963925D01*
X145002621Y-96994646D01*
X144969952Y-97068102D01*
X144889641Y-97168384D01*
X144788233Y-97268668D01*
X144692275Y-97342129D01*
X144637534Y-97363562D01*
X144561088Y-97339683D01*
X144435311Y-97276863D01*
X144286482Y-97188328D01*
X144276218Y-97181728D01*
X144054145Y-97041811D01*
X143874439Y-96944214D01*
X143716527Y-96887199D01*
X143559837Y-96869030D01*
X143383797Y-96887969D01*
X143167834Y-96942279D01*
X142891376Y-97030221D01*
X142808778Y-97057802D01*
X142488831Y-97178011D01*
X142237457Y-97307819D01*
X142045451Y-97460290D01*
X141903608Y-97648489D01*
X141802725Y-97885479D01*
X141733597Y-98184325D01*
X141687019Y-98558090D01*
X141677980Y-98662789D01*
X141652783Y-98974493D01*
X140710964Y-98974493D01*
X140622440Y-98925601D01*
X140556007Y-98869160D01*
X140548472Y-98851965D01*
X140585925Y-98772812D01*
X140682689Y-98688623D01*
X140810485Y-98622059D01*
X140852388Y-98608434D01*
X140928562Y-98578064D01*
X140966598Y-98528122D01*
X140966851Y-98442112D01*
X140929676Y-98303540D01*
X140862961Y-98116091D01*
X140807993Y-97962269D01*
X140784823Y-97865662D01*
X140791665Y-97797985D01*
X140826733Y-97730949D01*
X140837590Y-97714192D01*
X140943129Y-97614965D01*
X141047966Y-97593219D01*
X141170178Y-97571454D01*
X141248584Y-97494559D01*
X141299969Y-97345137D01*
X141303718Y-97328116D01*
X141316432Y-97097271D01*
X141266774Y-96867763D01*
X141163309Y-96678253D01*
X141158399Y-96672321D01*
X141090285Y-96568345D01*
X141066154Y-96482604D01*
X141068876Y-96468593D01*
X141141848Y-96394978D01*
X141270168Y-96368146D01*
X141428556Y-96390856D01*
X141508701Y-96420554D01*
X141629319Y-96467862D01*
X141714003Y-96472339D01*
X141807328Y-96435393D01*
X141817256Y-96430300D01*
X141905346Y-96367758D01*
X142034482Y-96255243D01*
X142184321Y-96111117D01*
X142279921Y-96012643D01*
X142423520Y-95867611D01*
X142550623Y-95752110D01*
X142644679Y-95680475D01*
X142682316Y-95664105D01*
X142767436Y-95690082D01*
X142876207Y-95753344D01*
X142886133Y-95760532D01*
X142989139Y-95822390D01*
X143069219Y-95824402D01*
X143113929Y-95804847D01*
X143179042Y-95747229D01*
X143207280Y-95648015D01*
X143211301Y-95551743D01*
X143223745Y-95407301D01*
X143274366Y-95307477D01*
X143351198Y-95233037D01*
X143464905Y-95162191D01*
X143633988Y-95084233D01*
X143825786Y-95011377D01*
X144007640Y-94955833D01*
X144146888Y-94929813D01*
X144163792Y-94929204D01*
X144246738Y-94952193D01*
X144362096Y-95008947D01*
X144386544Y-95023536D01*
X144542888Y-95085616D01*
X144722639Y-95085727D01*
X144941001Y-95022253D01*
X145109741Y-94946676D01*
X145250474Y-94884482D01*
X145367918Y-94844878D01*
X145412694Y-94837342D01*
X145492472Y-94863993D01*
G37*
G36*
X151880831Y-108932804D02*
G01*
X151929624Y-108973902D01*
X151930679Y-109064427D01*
X151885074Y-109175986D01*
X151870765Y-109197872D01*
X151784359Y-109272709D01*
X151685653Y-109296740D01*
X151604511Y-109270362D01*
X151570795Y-109193968D01*
X151570795Y-109193905D01*
X151608069Y-109045762D01*
X151712192Y-108955225D01*
X151871612Y-108932022D01*
X151880831Y-108932804D01*
G37*
G36*
X152938567Y-109228239D02*
G01*
X152935710Y-109319808D01*
X152916532Y-109480642D01*
X152884718Y-109690347D01*
X152843950Y-109928529D01*
X152797912Y-110174796D01*
X152750285Y-110408754D01*
X152704755Y-110610008D01*
X152665003Y-110758166D01*
X152658743Y-110777630D01*
X152614186Y-110883935D01*
X152562040Y-110921152D01*
X152489421Y-110913406D01*
X152407909Y-110874126D01*
X152362757Y-110787661D01*
X152345553Y-110704582D01*
X152312546Y-110553532D01*
X152266228Y-110406234D01*
X152216526Y-110288913D01*
X152173369Y-110227793D01*
X152163749Y-110224322D01*
X152140990Y-110265383D01*
X152116292Y-110370049D01*
X152104412Y-110445897D01*
X152064299Y-110639291D01*
X151996829Y-110760381D01*
X151887485Y-110827825D01*
X151788818Y-110851453D01*
X151676772Y-110864674D01*
X151628299Y-110844589D01*
X151616894Y-110775894D01*
X151616726Y-110752107D01*
X151631515Y-110662447D01*
X151671996Y-110506834D01*
X151732343Y-110305602D01*
X151806732Y-110079085D01*
X151823417Y-110030710D01*
X151899280Y-109807821D01*
X151962626Y-109612521D01*
X152007802Y-109462939D01*
X152029155Y-109377203D01*
X152030108Y-109367859D01*
X152063861Y-109271884D01*
X152142039Y-109204260D01*
X152230021Y-109194642D01*
X152231637Y-109195243D01*
X152270061Y-109214560D01*
X152298929Y-109249708D01*
X152324706Y-109318693D01*
X152353858Y-109439523D01*
X152392850Y-109630206D01*
X152399097Y-109661664D01*
X152432862Y-109809450D01*
X152465036Y-109913075D01*
X152487014Y-109948734D01*
X152514327Y-109908215D01*
X152551786Y-109803912D01*
X152578583Y-109707595D01*
X152641437Y-109489047D01*
X152697673Y-109360765D01*
X152747916Y-109321435D01*
X152760596Y-109325935D01*
X152804027Y-109306269D01*
X152857928Y-109227245D01*
X152859621Y-109223876D01*
X152921734Y-109099005D01*
X152938567Y-109228239D01*
G37*
G36*
X151075513Y-109128081D02*
G01*
X151258119Y-109133571D01*
X151396648Y-109143596D01*
X151471345Y-109158186D01*
X151478932Y-109165548D01*
X151439927Y-109204484D01*
X151375587Y-109217062D01*
X151305450Y-109222549D01*
X151322958Y-109239511D01*
X151361645Y-109255276D01*
X151418557Y-109283164D01*
X151395577Y-109303916D01*
X151338679Y-109320633D01*
X151240162Y-109338640D01*
X151080988Y-109358839D01*
X150892164Y-109377400D01*
X150852633Y-109380653D01*
X150667872Y-109397324D01*
X150556780Y-109415339D01*
X150501293Y-109440884D01*
X150483346Y-109480145D01*
X150482821Y-109507276D01*
X150470810Y-109631560D01*
X150451504Y-109707595D01*
X150437527Y-109763378D01*
X150455900Y-109794314D01*
X150524936Y-109807713D01*
X150662944Y-109810887D01*
X150710316Y-109810940D01*
X150902500Y-109817537D01*
X151009927Y-109836379D01*
X151030716Y-109866046D01*
X150962989Y-109905118D01*
X150873335Y-109934118D01*
X150652145Y-109998149D01*
X150502237Y-110049983D01*
X150406283Y-110101637D01*
X150346949Y-110165125D01*
X150306906Y-110252463D01*
X150277151Y-110347456D01*
X150204913Y-110591772D01*
X150554852Y-110595000D01*
X150753165Y-110602519D01*
X150911840Y-110619236D01*
X151017822Y-110642311D01*
X151058057Y-110668903D01*
X151019620Y-110696130D01*
X150925481Y-110720864D01*
X150768660Y-110756474D01*
X150576820Y-110797221D01*
X150377626Y-110837368D01*
X150198742Y-110871175D01*
X150078028Y-110891432D01*
X149935197Y-110913183D01*
X149818141Y-110932066D01*
X149802441Y-110934776D01*
X149701668Y-110916763D01*
X149624854Y-110865788D01*
X149570166Y-110803026D01*
X149570201Y-110750599D01*
X149626636Y-110669377D01*
X149633660Y-110660434D01*
X149696381Y-110547074D01*
X149754982Y-110386361D01*
X149782423Y-110279018D01*
X149835370Y-110079693D01*
X149909437Y-109864750D01*
X149950748Y-109765082D01*
X150015185Y-109598175D01*
X150059484Y-109437838D01*
X150071434Y-109354901D01*
X150090526Y-109239548D01*
X150148469Y-109182600D01*
X150192857Y-109167561D01*
X150299481Y-109150844D01*
X150460817Y-109138506D01*
X150657105Y-109130580D01*
X150868590Y-109127094D01*
X151075513Y-109128081D01*
G37*
G36*
X146967500Y-109228239D02*
G01*
X146964643Y-109319808D01*
X146945465Y-109480642D01*
X146913651Y-109690347D01*
X146872883Y-109928529D01*
X146826845Y-110174796D01*
X146779219Y-110408754D01*
X146733688Y-110610008D01*
X146693936Y-110758166D01*
X146687676Y-110777630D01*
X146643119Y-110883935D01*
X146590973Y-110921152D01*
X146518354Y-110913406D01*
X146436842Y-110874126D01*
X146391690Y-110787661D01*
X146374486Y-110704582D01*
X146341479Y-110553532D01*
X146295161Y-110406234D01*
X146245459Y-110288913D01*
X146202302Y-110227793D01*
X146192682Y-110224322D01*
X146169923Y-110265383D01*
X146145225Y-110370049D01*
X146133345Y-110445897D01*
X146093232Y-110639291D01*
X146025762Y-110760381D01*
X145916419Y-110827825D01*
X145817751Y-110851453D01*
X145704887Y-110863601D01*
X145655930Y-110844091D01*
X145645659Y-110787674D01*
X145635001Y-110729899D01*
X145586234Y-110713359D01*
X145474174Y-110729581D01*
X145473417Y-110729729D01*
X145118660Y-110799314D01*
X144843182Y-110852813D01*
X144636034Y-110891392D01*
X144486266Y-110916219D01*
X144382930Y-110928459D01*
X144315078Y-110929280D01*
X144271759Y-110919847D01*
X144242024Y-110901328D01*
X144214926Y-110874890D01*
X144204963Y-110864888D01*
X144150281Y-110802736D01*
X144150325Y-110750536D01*
X144206774Y-110669339D01*
X144213768Y-110660434D01*
X144276489Y-110547074D01*
X144335090Y-110386361D01*
X144362531Y-110279018D01*
X144415478Y-110079693D01*
X144489546Y-109864750D01*
X144530856Y-109765082D01*
X144595293Y-109598175D01*
X144639593Y-109437838D01*
X144651542Y-109354901D01*
X144670634Y-109239548D01*
X144728577Y-109182600D01*
X144772965Y-109167561D01*
X144879590Y-109150844D01*
X145040925Y-109138506D01*
X145237214Y-109130580D01*
X145448698Y-109127094D01*
X145655622Y-109128081D01*
X145838227Y-109133571D01*
X145976757Y-109143596D01*
X146051453Y-109158186D01*
X146059041Y-109165548D01*
X146020036Y-109204484D01*
X145955696Y-109217062D01*
X145885559Y-109222549D01*
X145903066Y-109239511D01*
X145941753Y-109255276D01*
X145998665Y-109283164D01*
X145975686Y-109303916D01*
X145918787Y-109320633D01*
X145820271Y-109338640D01*
X145661096Y-109358839D01*
X145472272Y-109377400D01*
X145432741Y-109380653D01*
X145247980Y-109397324D01*
X145136889Y-109415339D01*
X145081402Y-109440884D01*
X145063454Y-109480145D01*
X145062929Y-109507276D01*
X145050918Y-109631560D01*
X145031613Y-109707595D01*
X145017635Y-109763378D01*
X145036009Y-109794314D01*
X145105044Y-109807713D01*
X145243052Y-109810887D01*
X145290424Y-109810940D01*
X145482608Y-109817537D01*
X145590035Y-109836379D01*
X145610825Y-109866046D01*
X145543098Y-109905118D01*
X145453444Y-109934118D01*
X145232170Y-109998205D01*
X145082228Y-110050074D01*
X144986309Y-110101626D01*
X144927106Y-110164761D01*
X144887310Y-110251379D01*
X144858530Y-110343159D01*
X144787563Y-110583177D01*
X145205128Y-110601382D01*
X145390414Y-110608302D01*
X145537246Y-110611603D01*
X145624226Y-110610908D01*
X145638519Y-110608992D01*
X145661624Y-110561590D01*
X145706001Y-110446105D01*
X145765056Y-110281988D01*
X145832199Y-110088691D01*
X145900835Y-109885664D01*
X145964373Y-109692360D01*
X146016220Y-109528230D01*
X146049784Y-109412725D01*
X146059041Y-109368235D01*
X146092747Y-109272035D01*
X146170862Y-109204290D01*
X146258882Y-109194616D01*
X146260571Y-109195243D01*
X146298994Y-109214560D01*
X146327862Y-109249708D01*
X146353639Y-109318693D01*
X146382791Y-109439523D01*
X146421783Y-109630206D01*
X146428030Y-109661664D01*
X146461795Y-109809450D01*
X146493969Y-109913075D01*
X146515947Y-109948734D01*
X146543260Y-109908215D01*
X146580719Y-109803912D01*
X146607516Y-109707595D01*
X146670371Y-109489047D01*
X146726606Y-109360765D01*
X146776849Y-109321435D01*
X146789530Y-109325935D01*
X146832960Y-109306269D01*
X146886861Y-109227245D01*
X146888554Y-109223876D01*
X146950668Y-109099005D01*
X146967500Y-109228239D01*
G37*
G36*
X148367402Y-109201415D02*
G01*
X148401536Y-109218189D01*
X148367710Y-109259153D01*
X148360740Y-109259765D01*
X148308611Y-109289618D01*
X148214481Y-109367166D01*
X148119601Y-109455577D01*
X147984438Y-109581671D01*
X147851228Y-109696414D01*
X147781464Y-109750858D01*
X147695863Y-109817238D01*
X147679669Y-109852464D01*
X147725824Y-109876292D01*
X147735533Y-109879423D01*
X147987912Y-109968966D01*
X148159680Y-110051593D01*
X148246373Y-110125009D01*
X148255627Y-110147205D01*
X148228449Y-110242149D01*
X148115555Y-110365578D01*
X147916585Y-110517784D01*
X147631180Y-110699060D01*
X147439563Y-110809946D01*
X147245179Y-110918275D01*
X147080212Y-111007896D01*
X146960777Y-111070220D01*
X146902987Y-111096662D01*
X146900897Y-111097016D01*
X146904926Y-111068701D01*
X146950390Y-111009917D01*
X146997598Y-110935968D01*
X146975116Y-110904786D01*
X146984859Y-110869226D01*
X147052560Y-110786534D01*
X147166625Y-110669592D01*
X147293637Y-110550843D01*
X147441931Y-110411656D01*
X147557379Y-110292674D01*
X147627036Y-110207960D01*
X147640769Y-110173696D01*
X147583750Y-110149871D01*
X147466721Y-110134976D01*
X147386721Y-110132459D01*
X147192695Y-110110990D01*
X147040845Y-110052824D01*
X146949683Y-109967322D01*
X146931735Y-109902378D01*
X146973543Y-109786036D01*
X147087615Y-109658190D01*
X147256928Y-109528926D01*
X147464458Y-109408330D01*
X147693180Y-109306488D01*
X147926070Y-109233487D01*
X148114466Y-109201656D01*
X148263944Y-109194646D01*
X148367402Y-109201415D01*
G37*
G36*
X149213816Y-108922030D02*
G01*
X149288925Y-109036593D01*
X149369654Y-109155412D01*
X149471209Y-109214120D01*
X149550571Y-109231592D01*
X149709105Y-109242823D01*
X149858341Y-109232410D01*
X149866639Y-109230849D01*
X149975217Y-109223577D01*
X150009131Y-109254023D01*
X149972402Y-109300744D01*
X149945149Y-109305696D01*
X149872241Y-109342325D01*
X149858074Y-109365871D01*
X149804871Y-109409556D01*
X149689010Y-109463859D01*
X149552413Y-109511601D01*
X149401100Y-109563284D01*
X149287079Y-109613105D01*
X149238781Y-109646634D01*
X149211938Y-109709347D01*
X149164822Y-109838107D01*
X149105110Y-110011459D01*
X149064954Y-110132459D01*
X148984061Y-110364275D01*
X148896953Y-110588480D01*
X148812462Y-110784445D01*
X148739417Y-110931541D01*
X148691946Y-111003823D01*
X148655471Y-110990767D01*
X148631851Y-110960288D01*
X148595377Y-110931141D01*
X148555192Y-110977887D01*
X148535113Y-111019032D01*
X148481389Y-111106049D01*
X148430604Y-111145468D01*
X148403107Y-111123590D01*
X148402215Y-111108499D01*
X148415087Y-111026064D01*
X148448151Y-110878268D01*
X148495579Y-110687848D01*
X148551538Y-110477540D01*
X148610199Y-110270084D01*
X148656051Y-110118605D01*
X148708555Y-109947069D01*
X148748066Y-109808563D01*
X148767881Y-109726904D01*
X148768987Y-109717411D01*
X148726916Y-109698063D01*
X148613655Y-109694742D01*
X148488958Y-109703824D01*
X148299862Y-109712191D01*
X148185343Y-109686237D01*
X148133152Y-109621642D01*
X148126652Y-109576048D01*
X148164886Y-109521677D01*
X148264494Y-109451917D01*
X148399682Y-109380370D01*
X148544654Y-109320635D01*
X148673617Y-109286313D01*
X148677124Y-109285796D01*
X148810429Y-109258247D01*
X148891246Y-109206348D01*
X148956324Y-109102655D01*
X148975677Y-109062821D01*
X149058151Y-108925310D01*
X149135604Y-108878541D01*
X149213816Y-108922030D01*
G37*
G36*
X138555898Y-108937980D02*
G01*
X138605279Y-108957437D01*
X138566055Y-108994354D01*
X138438057Y-109050212D01*
X138221115Y-109126490D01*
X138169411Y-109143549D01*
X137972520Y-109212859D01*
X137844904Y-109272435D01*
X137766457Y-109333762D01*
X137721581Y-109399360D01*
X137674327Y-109499749D01*
X137653653Y-109561513D01*
X137653616Y-109562633D01*
X137695394Y-109574461D01*
X137805318Y-109575620D01*
X137960276Y-109565951D01*
X137972384Y-109564849D01*
X138158196Y-109554867D01*
X138274032Y-109563584D01*
X138314391Y-109587939D01*
X138273769Y-109624874D01*
X138157913Y-109668003D01*
X138005231Y-109733464D01*
X137868918Y-109822634D01*
X137853893Y-109835828D01*
X137721941Y-109928555D01*
X137570406Y-109997441D01*
X137563755Y-109999492D01*
X137441621Y-110055562D01*
X137347492Y-110154640D01*
X137283656Y-110262295D01*
X137221740Y-110366563D01*
X137128420Y-110508721D01*
X137016275Y-110671334D01*
X136897885Y-110836967D01*
X136785830Y-110988188D01*
X136692691Y-111107560D01*
X136631047Y-111177651D01*
X136615063Y-111188879D01*
X136601457Y-111149558D01*
X136597196Y-111077710D01*
X136615033Y-110967797D01*
X136664153Y-110792937D01*
X136737973Y-110571877D01*
X136829909Y-110323364D01*
X136933377Y-110066147D01*
X137030854Y-109842844D01*
X137126036Y-109623891D01*
X137178369Y-109475594D01*
X137190097Y-109388572D01*
X137163463Y-109353447D01*
X137148372Y-109351627D01*
X137107080Y-109314664D01*
X137102441Y-109286011D01*
X137137185Y-109189453D01*
X137244299Y-109109567D01*
X137428107Y-109045005D01*
X137692930Y-108994414D01*
X138043090Y-108956444D01*
X138191995Y-108945531D01*
X138418080Y-108934505D01*
X138555898Y-108937980D01*
G37*
G36*
X141736348Y-109110140D02*
G01*
X141744722Y-109121971D01*
X141763522Y-109163492D01*
X141772227Y-109227808D01*
X141770173Y-109329906D01*
X141756692Y-109484770D01*
X141731121Y-109707386D01*
X141711812Y-109862940D01*
X141698983Y-110003162D01*
X141707998Y-110069779D01*
X141741191Y-110078954D01*
X141742920Y-110078399D01*
X141782659Y-110029081D01*
X141838036Y-109917515D01*
X141899101Y-109769683D01*
X141955908Y-109611565D01*
X141998507Y-109469141D01*
X142016953Y-109368393D01*
X142017088Y-109362365D01*
X142051530Y-109269697D01*
X142130616Y-109203859D01*
X142217987Y-109195004D01*
X142218618Y-109195243D01*
X142257041Y-109214560D01*
X142285909Y-109249708D01*
X142311686Y-109318693D01*
X142340838Y-109439523D01*
X142379830Y-109630206D01*
X142386077Y-109661664D01*
X142419842Y-109809450D01*
X142452016Y-109913075D01*
X142473994Y-109948734D01*
X142501307Y-109908215D01*
X142527994Y-109833906D01*
X142843851Y-109833906D01*
X142866817Y-109856871D01*
X142889782Y-109833906D01*
X142866817Y-109810940D01*
X142843851Y-109833906D01*
X142527994Y-109833906D01*
X142538766Y-109803912D01*
X142565563Y-109707595D01*
X142626205Y-109495079D01*
X142680445Y-109368954D01*
X142730803Y-109324184D01*
X142754293Y-109330086D01*
X142795145Y-109329426D01*
X142797920Y-109317186D01*
X142824138Y-109254070D01*
X142870015Y-109188164D01*
X142907862Y-109147761D01*
X142926715Y-109155444D01*
X142929726Y-109225007D01*
X142920045Y-109370245D01*
X142917843Y-109397559D01*
X142893578Y-109696112D01*
X142982410Y-109469229D01*
X143073831Y-109270550D01*
X143158398Y-109160965D01*
X143238169Y-109138139D01*
X143264308Y-109149567D01*
X143357894Y-109175220D01*
X143429646Y-109174658D01*
X143526517Y-109190293D01*
X143559748Y-109270879D01*
X143529448Y-109417037D01*
X143489962Y-109516138D01*
X143434907Y-109646841D01*
X143410621Y-109728040D01*
X143423191Y-109757320D01*
X143478706Y-109732270D01*
X143583252Y-109650478D01*
X143742918Y-109509531D01*
X143923236Y-109344440D01*
X144083653Y-109222014D01*
X144251604Y-109157720D01*
X144336618Y-109142233D01*
X144566274Y-109109430D01*
X144476987Y-109209540D01*
X144417450Y-109279033D01*
X144419276Y-109295284D01*
X144476987Y-109275507D01*
X144535785Y-109257641D01*
X144536240Y-109283663D01*
X144492834Y-109353910D01*
X144412165Y-109444707D01*
X144264035Y-109577682D01*
X144057973Y-109744903D01*
X143803510Y-109938438D01*
X143694393Y-110018476D01*
X143566802Y-110111183D01*
X143681360Y-110431857D01*
X143756529Y-110658566D01*
X143809606Y-110852080D01*
X143837506Y-110997839D01*
X143837144Y-111081286D01*
X143821972Y-111095383D01*
X143780109Y-111061131D01*
X143699132Y-110972985D01*
X143594995Y-110850579D01*
X143483648Y-110713546D01*
X143381046Y-110581522D01*
X143303141Y-110474140D01*
X143265884Y-110411034D01*
X143265838Y-110410898D01*
X143234319Y-110364745D01*
X143191640Y-110392405D01*
X143134218Y-110498849D01*
X143058471Y-110689049D01*
X143051295Y-110708628D01*
X142975308Y-110900044D01*
X142916671Y-111006797D01*
X142874078Y-111027624D01*
X142846219Y-110961262D01*
X142831785Y-110806447D01*
X142829469Y-110561918D01*
X142830465Y-110495445D01*
X142840045Y-109971700D01*
X142747935Y-110362116D01*
X142702909Y-110552006D01*
X142663374Y-110717032D01*
X142635965Y-110829552D01*
X142630639Y-110850735D01*
X142595811Y-110918888D01*
X142522863Y-110925577D01*
X142483512Y-110916404D01*
X142397257Y-110874350D01*
X142350501Y-110788563D01*
X142332533Y-110703372D01*
X142297572Y-110544643D01*
X142249168Y-110395253D01*
X142197249Y-110280539D01*
X142151744Y-110225840D01*
X142144812Y-110224322D01*
X142117948Y-110264040D01*
X142106358Y-110350633D01*
X142089217Y-110483065D01*
X142051255Y-110630823D01*
X142048944Y-110637703D01*
X142000460Y-110743107D01*
X141926451Y-110803985D01*
X141794617Y-110846321D01*
X141787432Y-110848057D01*
X141652016Y-110890899D01*
X141584887Y-110945321D01*
X141565087Y-111004786D01*
X141524029Y-111120246D01*
X141481979Y-111179374D01*
X141427497Y-111219408D01*
X141397998Y-111180670D01*
X141388930Y-111148957D01*
X141352711Y-111071351D01*
X141322762Y-111051085D01*
X141294267Y-111011150D01*
X141282190Y-110914938D01*
X141282187Y-110913291D01*
X141268883Y-110816541D01*
X141236828Y-110775508D01*
X141236256Y-110775497D01*
X141207470Y-110734755D01*
X141191482Y-110632998D01*
X141190325Y-110592144D01*
X141190325Y-110408791D01*
X140995117Y-110484104D01*
X140834009Y-110565348D01*
X140682337Y-110671082D01*
X140655489Y-110694726D01*
X140515016Y-110792820D01*
X140397574Y-110803440D01*
X140305146Y-110726435D01*
X140302134Y-110721748D01*
X140297654Y-110633427D01*
X140361503Y-110489964D01*
X140489165Y-110298133D01*
X141649638Y-110298133D01*
X141657539Y-110389999D01*
X141681626Y-110392058D01*
X141722472Y-110304137D01*
X141733669Y-110272976D01*
X141759243Y-110181765D01*
X141743359Y-110155834D01*
X141715196Y-110163062D01*
X141664284Y-110223464D01*
X141649638Y-110298133D01*
X140489165Y-110298133D01*
X140494277Y-110290452D01*
X140557515Y-110210280D01*
X141052531Y-110210280D01*
X141082836Y-110226569D01*
X141151000Y-110198392D01*
X141210010Y-110152144D01*
X141269595Y-110049912D01*
X141282187Y-109982461D01*
X141275130Y-109931375D01*
X141245305Y-109942999D01*
X141179734Y-110023904D01*
X141167359Y-110040597D01*
X141096538Y-110139598D01*
X141056137Y-110201905D01*
X141052531Y-110210280D01*
X140557515Y-110210280D01*
X140696575Y-110033984D01*
X140942910Y-109748853D01*
X141089850Y-109580956D01*
X141216434Y-109430799D01*
X141308476Y-109315567D01*
X141350493Y-109255092D01*
X141411676Y-109184395D01*
X141454462Y-109167902D01*
X141537865Y-109145136D01*
X141605731Y-109110488D01*
X141684854Y-109077046D01*
X141736348Y-109110140D01*
G37*
G36*
X151602585Y-109420684D02*
G01*
X151705749Y-109436402D01*
X151743037Y-109439976D01*
X151787248Y-109481934D01*
X151800451Y-109551385D01*
X151786866Y-109642200D01*
X151749949Y-109800485D01*
X151695461Y-110006575D01*
X151629161Y-110240805D01*
X151556808Y-110483509D01*
X151484161Y-110715024D01*
X151416981Y-110915684D01*
X151361028Y-111065824D01*
X151347763Y-111097016D01*
X151293275Y-111212616D01*
X151263395Y-111251023D01*
X151248940Y-111220467D01*
X151245243Y-111188879D01*
X151239723Y-111063898D01*
X151241930Y-110991003D01*
X151227875Y-110934557D01*
X151196438Y-110940525D01*
X151168492Y-110923233D01*
X151165864Y-110826144D01*
X151187415Y-110657432D01*
X151232006Y-110425270D01*
X151298499Y-110137833D01*
X151320542Y-110049913D01*
X151387156Y-109794873D01*
X151439156Y-109616846D01*
X151482185Y-109503245D01*
X151521886Y-109441482D01*
X151563901Y-109418968D01*
X151602585Y-109420684D01*
G37*
G36*
X139091374Y-108908407D02*
G01*
X139325573Y-108952228D01*
X139580212Y-109017097D01*
X139834501Y-109096330D01*
X140067646Y-109183245D01*
X140258857Y-109271160D01*
X140387340Y-109353392D01*
X140413319Y-109379203D01*
X140441087Y-109468169D01*
X140432858Y-109534095D01*
X140371395Y-109612218D01*
X140247104Y-109701202D01*
X140085478Y-109786657D01*
X139912013Y-109854193D01*
X139823869Y-109877827D01*
X139722827Y-109905693D01*
X139675150Y-109930689D01*
X139674592Y-109932771D01*
X139701121Y-109976482D01*
X139772202Y-110074641D01*
X139875078Y-110209902D01*
X139933715Y-110285089D01*
X140101895Y-110513992D01*
X140235437Y-110725729D01*
X140325222Y-110904196D01*
X140362130Y-111033289D01*
X140362553Y-111042313D01*
X140335652Y-111078794D01*
X140313048Y-111071218D01*
X140288548Y-111073975D01*
X140316769Y-111141338D01*
X140351658Y-111224082D01*
X140353387Y-111260295D01*
X140304519Y-111248826D01*
X140208500Y-111181878D01*
X140079272Y-111072574D01*
X139982390Y-110982188D01*
X140225768Y-110982188D01*
X140248734Y-111005154D01*
X140271699Y-110982188D01*
X140248734Y-110959222D01*
X140225768Y-110982188D01*
X139982390Y-110982188D01*
X139930778Y-110934036D01*
X139776962Y-110779387D01*
X139631767Y-110621750D01*
X139509135Y-110474248D01*
X139486581Y-110444478D01*
X139359415Y-110277507D01*
X139274011Y-110178450D01*
X139221228Y-110138749D01*
X139191925Y-110149847D01*
X139185918Y-110163006D01*
X139099699Y-110399395D01*
X139007309Y-110635720D01*
X138915566Y-110856384D01*
X138831290Y-111045794D01*
X138761297Y-111188353D01*
X138712409Y-111268466D01*
X138697416Y-111280274D01*
X138656957Y-111242777D01*
X138617036Y-111162923D01*
X138582087Y-111030357D01*
X138572242Y-110937094D01*
X138551879Y-110846240D01*
X138517786Y-110810932D01*
X138498692Y-110768600D01*
X138518413Y-110661399D01*
X138578504Y-110481037D01*
X138581060Y-110474102D01*
X138645966Y-110283011D01*
X138700700Y-110094591D01*
X138731999Y-109956765D01*
X138768659Y-109802116D01*
X138828026Y-109613543D01*
X138875416Y-109486882D01*
X138878919Y-109477938D01*
X139399708Y-109477938D01*
X139400881Y-109514171D01*
X139419520Y-109529971D01*
X139476589Y-109525927D01*
X139593054Y-109502631D01*
X139672332Y-109485615D01*
X139803268Y-109450623D01*
X139887360Y-109414877D01*
X139904249Y-109396567D01*
X139863318Y-109367268D01*
X139759450Y-109337568D01*
X139692480Y-109325499D01*
X139529274Y-109317707D01*
X139435827Y-109358847D01*
X139400710Y-109454871D01*
X139399708Y-109477938D01*
X138878919Y-109477938D01*
X138932619Y-109340820D01*
X138972353Y-109229257D01*
X138985333Y-109180298D01*
X138949181Y-109136269D01*
X138860892Y-109074517D01*
X138844563Y-109064985D01*
X138749575Y-108990181D01*
X138743424Y-108931357D01*
X138823369Y-108897308D01*
X138898408Y-108892315D01*
X139091374Y-108908407D01*
G37*
%TO.C,MB5*%
D12*
X170880000Y-83995000D02*
X170880000Y-86645000D01*
X168120000Y-86645000D02*
X170880000Y-86645000D01*
X168120000Y-83995000D02*
X170880000Y-83995000D01*
X168120000Y-83995000D02*
X168120000Y-86645000D01*
X168120000Y-82725000D02*
X168120000Y-81345000D01*
X168120000Y-81345000D02*
X169500000Y-81345000D01*
%TO.C,Joystick1*%
X163870000Y-118540000D02*
X165250000Y-118540000D01*
X163870000Y-119920000D02*
X163870000Y-118540000D01*
X163870000Y-121190000D02*
X163870000Y-131460000D01*
X163870000Y-121190000D02*
X166630000Y-121190000D01*
X163870000Y-131460000D02*
X166630000Y-131460000D01*
X166630000Y-121190000D02*
X166630000Y-131460000D01*
%TO.C,Brains1*%
D13*
X130425000Y-80705000D02*
X141494000Y-80705000D01*
X130425000Y-80705000D02*
X158935000Y-80705000D01*
X130425000Y-131655000D02*
X130425000Y-80705000D01*
X130425000Y-131655000D02*
X130425000Y-80705000D01*
X130425000Y-131655000D02*
X135795000Y-131655000D01*
X135795000Y-131655000D02*
X153485000Y-131655000D01*
X141494000Y-80705000D02*
X148205000Y-80705000D01*
X148205000Y-80705000D02*
X158935000Y-80705000D01*
X153485000Y-131655000D02*
X158935000Y-131655000D01*
X158935000Y-80705000D02*
X158935000Y-131655000D01*
X158935000Y-80705000D02*
X158935000Y-131655000D01*
X158935000Y-131655000D02*
X130425000Y-131655000D01*
D14*
X129955000Y-90665000D02*
G75*
G02*
X129755000Y-90665000I-100000J0D01*
G01*
X129755000Y-90665000D02*
G75*
G02*
X129955000Y-90665000I100000J0D01*
G01*
%TO.C,MB4*%
D12*
X163870000Y-88830000D02*
X165250000Y-88830000D01*
X163870000Y-90210000D02*
X163870000Y-88830000D01*
X163870000Y-91480000D02*
X163870000Y-94130000D01*
X163870000Y-91480000D02*
X166630000Y-91480000D01*
X163870000Y-94130000D02*
X166630000Y-94130000D01*
X166630000Y-91480000D02*
X166630000Y-94130000D01*
%TO.C,Charger*%
X127630000Y-89940000D02*
X127630000Y-97670000D01*
X124870000Y-97670000D02*
X127630000Y-97670000D01*
X124870000Y-89940000D02*
X127630000Y-89940000D01*
X124870000Y-89940000D02*
X124870000Y-97670000D01*
X124870000Y-88670000D02*
X124870000Y-87290000D01*
X124870000Y-87290000D02*
X126250000Y-87290000D01*
%TO.C,SensUp1*%
X163870000Y-111345000D02*
X165250000Y-111345000D01*
X163870000Y-112725000D02*
X163870000Y-111345000D01*
X163870000Y-113995000D02*
X163870000Y-116645000D01*
X163870000Y-113995000D02*
X166630000Y-113995000D01*
X163870000Y-116645000D02*
X166630000Y-116645000D01*
X166630000Y-113995000D02*
X166630000Y-116645000D01*
%TO.C,OLED1*%
X127630000Y-109770000D02*
X127630000Y-117500000D01*
X124870000Y-117500000D02*
X127630000Y-117500000D01*
X124870000Y-109770000D02*
X127630000Y-109770000D01*
X124870000Y-109770000D02*
X124870000Y-117500000D01*
X124870000Y-108500000D02*
X124870000Y-107120000D01*
X124870000Y-107120000D02*
X126250000Y-107120000D01*
%TO.C,LC1*%
X163870000Y-96345000D02*
X165250000Y-96345000D01*
X163870000Y-97725000D02*
X163870000Y-96345000D01*
X163870000Y-98995000D02*
X163870000Y-101645000D01*
X163870000Y-98995000D02*
X166630000Y-98995000D01*
X163870000Y-101645000D02*
X166630000Y-101645000D01*
X166630000Y-98995000D02*
X166630000Y-101645000D01*
%TO.C,SensDown1*%
X163870000Y-103845000D02*
X165250000Y-103845000D01*
X163870000Y-105225000D02*
X163870000Y-103845000D01*
X163870000Y-106495000D02*
X163870000Y-109145000D01*
X163870000Y-106495000D02*
X166630000Y-106495000D01*
X163870000Y-109145000D02*
X166630000Y-109145000D01*
X166630000Y-106495000D02*
X166630000Y-109145000D01*
%TO.C,RC1*%
X163870000Y-81345000D02*
X165250000Y-81345000D01*
X163870000Y-82725000D02*
X163870000Y-81345000D01*
X163870000Y-83995000D02*
X163870000Y-86645000D01*
X163870000Y-83995000D02*
X166630000Y-83995000D01*
X163870000Y-86645000D02*
X166630000Y-86645000D01*
X166630000Y-83995000D02*
X166630000Y-86645000D01*
%TD*%
M02*
