%TF.GenerationSoftware,KiCad,Pcbnew,10.0.1*%
%TF.CreationDate,2026-05-24T16:39:38-04:00*%
%TF.ProjectId,Frankenstein PCB,4672616e-6b65-46e7-9374-65696e205043,rev?*%
%TF.SameCoordinates,Original*%
%TF.FileFunction,Copper,L1,Top*%
%TF.FilePolarity,Positive*%
%FSLAX46Y46*%
G04 Gerber Fmt 4.6, Leading zero omitted, Abs format (unit mm)*
G04 Created by KiCad (PCBNEW 10.0.1) date 2026-05-24 16:39:38*
%MOMM*%
%LPD*%
G01*
G04 APERTURE LIST*
%TA.AperFunction,ComponentPad*%
%ADD10C,1.700000*%
%TD*%
%TA.AperFunction,ComponentPad*%
%ADD11R,1.700000X1.700000*%
%TD*%
%TA.AperFunction,ComponentPad*%
%ADD12R,2.000000X2.000000*%
%TD*%
%TA.AperFunction,ComponentPad*%
%ADD13C,2.000000*%
%TD*%
%TA.AperFunction,Conductor*%
%ADD14C,0.200000*%
%TD*%
G04 APERTURE END LIST*
D10*
%TO.P,MB5,2,Pin_2_2*%
%TO.N,GND*%
X169500000Y-85265000D03*
D11*
%TO.P,MB5,1,Pin_1_1*%
%TO.N,Net-(Brains1-D13)*%
X169500000Y-82725000D03*
%TD*%
%TO.P,Joystick1,1,Pin_1_1*%
%TO.N,GND*%
X165250000Y-119920000D03*
D10*
%TO.P,Joystick1,2,Pin_2_2*%
%TO.N,Net-(Brains1-3V3)*%
X165250000Y-122460000D03*
%TO.P,Joystick1,3,Pin_3_3*%
%TO.N,Net-(Brains1-D34)*%
X165250000Y-125000000D03*
%TO.P,Joystick1,4,Pin_4_4*%
%TO.N,Net-(Brains1-D35)*%
X165250000Y-127540000D03*
%TO.P,Joystick1,5,Pin_5_5*%
%TO.N,Net-(Brains1-D32)*%
X165250000Y-130080000D03*
%TD*%
D12*
%TO.P,Brains1,1,3V3_1*%
%TO.N,Net-(Brains1-3V3)*%
X132005000Y-90665000D03*
D13*
%TO.P,Brains1,2,GND_2*%
%TO.N,GND*%
X132005000Y-93205000D03*
%TO.P,Brains1,3,D15_3*%
%TO.N,unconnected-(Brains1-D15-Pad3)*%
X132005000Y-95745000D03*
%TO.P,Brains1,4,D2_4*%
%TO.N,unconnected-(Brains1-D2-Pad4)*%
X132005000Y-98285000D03*
%TO.P,Brains1,5,D4_5*%
%TO.N,unconnected-(Brains1-D4-Pad5)*%
X132005000Y-100825000D03*
%TO.P,Brains1,6,RX2_6*%
%TO.N,unconnected-(Brains1-RX2-Pad6)*%
X132005000Y-103365000D03*
%TO.P,Brains1,7,TX2_7*%
%TO.N,unconnected-(Brains1-TX2-Pad7)*%
X132005000Y-105905000D03*
%TO.P,Brains1,8,D5_8*%
%TO.N,unconnected-(Brains1-D5-Pad8)*%
X132005000Y-108445000D03*
%TO.P,Brains1,9,D18_9*%
%TO.N,unconnected-(Brains1-D18-Pad9)*%
X132005000Y-110985000D03*
%TO.P,Brains1,10,D19_10*%
%TO.N,unconnected-(Brains1-D19-Pad10)*%
X132005000Y-113525000D03*
%TO.P,Brains1,11,D21_11*%
%TO.N,Net-(Brains1-D21)*%
X132005000Y-116065000D03*
%TO.P,Brains1,12,RX0_12*%
%TO.N,unconnected-(Brains1-RX0-Pad12)*%
X132005000Y-118605000D03*
%TO.P,Brains1,13,TX0_13*%
%TO.N,unconnected-(Brains1-TX0-Pad13)*%
X132005000Y-121145000D03*
%TO.P,Brains1,14,D22_14*%
%TO.N,Net-(Brains1-D22)*%
X132005000Y-123685000D03*
%TO.P,Brains1,15,D23_15*%
%TO.N,unconnected-(Brains1-D23-Pad15)*%
X132005000Y-126225000D03*
%TO.P,Brains1,16,EN_16*%
%TO.N,unconnected-(Brains1-EN-Pad16)*%
X157405000Y-126225000D03*
%TO.P,Brains1,17,VP_17*%
%TO.N,unconnected-(Brains1-VP-Pad17)*%
X157405000Y-123685000D03*
%TO.P,Brains1,18,VN_18*%
%TO.N,unconnected-(Brains1-VN-Pad18)*%
X157405000Y-121145000D03*
%TO.P,Brains1,19,D34_19*%
%TO.N,Net-(Brains1-D34)*%
X157405000Y-118605000D03*
%TO.P,Brains1,20,D35_20*%
%TO.N,Net-(Brains1-D35)*%
X157405000Y-116065000D03*
%TO.P,Brains1,21,D32_21*%
%TO.N,Net-(Brains1-D32)*%
X157405000Y-113525000D03*
%TO.P,Brains1,22,D33_22*%
%TO.N,Net-(Brains1-D33)*%
X157405000Y-110985000D03*
%TO.P,Brains1,23,D25_23*%
%TO.N,Net-(Brains1-D25)*%
X157405000Y-108445000D03*
%TO.P,Brains1,24,D26_24*%
%TO.N,Net-(Brains1-D26)*%
X157405000Y-105905000D03*
%TO.P,Brains1,25,D27_25*%
%TO.N,Net-(Brains1-D27)*%
X157405000Y-103365000D03*
%TO.P,Brains1,26,D14_26*%
%TO.N,Net-(Brains1-D14)*%
X157405000Y-100825000D03*
%TO.P,Brains1,27,D12_27*%
%TO.N,unconnected-(Brains1-D12-Pad27)*%
X157405000Y-98285000D03*
%TO.P,Brains1,28,D13_28*%
%TO.N,Net-(Brains1-D13)*%
X157405000Y-95745000D03*
%TO.P,Brains1,29,GND_29*%
%TO.N,GND*%
X157405000Y-93205000D03*
%TO.P,Brains1,30,VIN_30*%
%TO.N,Net-(Brains1-VIN)*%
X157405000Y-90665000D03*
%TD*%
D11*
%TO.P,MB4,1,Pin_1_1*%
%TO.N,Net-(Brains1-D27)*%
X165250000Y-90210000D03*
D10*
%TO.P,MB4,2,Pin_2_2*%
%TO.N,GND*%
X165250000Y-92750000D03*
%TD*%
%TO.P,Charger,4,Pin_4_4*%
%TO.N,Net-(Brains1-VIN)*%
X126250000Y-96290000D03*
%TO.P,Charger,3,Pin_3_3*%
%TO.N,unconnected-(ChargingModule1-Pin_3-Pad3)*%
X126250000Y-93750000D03*
%TO.P,Charger,2,Pin_2_2*%
%TO.N,unconnected-(ChargingModule1-Pin_2-Pad2)*%
X126250000Y-91210000D03*
D11*
%TO.P,Charger,1,Pin_1_1*%
%TO.N,GND*%
X126250000Y-88670000D03*
%TD*%
%TO.P,SensUp1,1,Pin_1_1*%
%TO.N,Net-(Brains1-D33)*%
X165250000Y-112725000D03*
D10*
%TO.P,SensUp1,2,Pin_2_2*%
%TO.N,GND*%
X165250000Y-115265000D03*
%TD*%
%TO.P,OLED1,4,Pin_4_4*%
%TO.N,Net-(Brains1-D21)*%
X126250000Y-116120000D03*
%TO.P,OLED1,3,Pin_3_3*%
%TO.N,Net-(Brains1-D22)*%
X126250000Y-113580000D03*
%TO.P,OLED1,2,Pin_2_2*%
%TO.N,Net-(Brains1-3V3)*%
X126250000Y-111040000D03*
D11*
%TO.P,OLED1,1,Pin_1_1*%
%TO.N,GND*%
X126250000Y-108500000D03*
%TD*%
%TO.P,LC1,1,Pin_1_1*%
%TO.N,Net-(Brains1-D26)*%
X165250000Y-97725000D03*
D10*
%TO.P,LC1,2,Pin_2_2*%
%TO.N,GND*%
X165250000Y-100265000D03*
%TD*%
D11*
%TO.P,SensDown1,1,Pin_1_1*%
%TO.N,Net-(Brains1-D25)*%
X165250000Y-105225000D03*
D10*
%TO.P,SensDown1,2,Pin_2_2*%
%TO.N,GND*%
X165250000Y-107765000D03*
%TD*%
D11*
%TO.P,RC1,1,Pin_1_1*%
%TO.N,Net-(Brains1-D14)*%
X165250000Y-82725000D03*
D10*
%TO.P,RC1,2,Pin_2_2*%
%TO.N,GND*%
X165250000Y-85265000D03*
%TD*%
%TO.N,Net-(Brains1-VIN)*%
D14*
X159500000Y-88570000D02*
X157405000Y-90665000D01*
X124000000Y-80000000D02*
X159500000Y-80000000D01*
X159500000Y-80000000D02*
X159500000Y-88570000D01*
X124000000Y-94040000D02*
X124000000Y-80000000D01*
X126250000Y-96290000D02*
X124000000Y-94040000D01*
%TO.N,Net-(Brains1-3V3)*%
X126250000Y-111040000D02*
X123750000Y-108540000D01*
X123750000Y-108540000D02*
X123750000Y-133000000D01*
X166400000Y-123610000D02*
X165250000Y-122460000D01*
X166400000Y-132850000D02*
X166400000Y-123610000D01*
X166250000Y-133000000D02*
X166400000Y-132850000D01*
X123750000Y-133000000D02*
X166250000Y-133000000D01*
X127400000Y-90733654D02*
X127400000Y-103350000D01*
X127400000Y-103350000D02*
X123750000Y-107000000D01*
X126486346Y-89820000D02*
X127400000Y-90733654D01*
X125100000Y-89820000D02*
X126486346Y-89820000D01*
X123750000Y-107000000D02*
X123750000Y-108540000D01*
X128860000Y-87520000D02*
X125100000Y-87520000D01*
X125100000Y-87520000D02*
X125100000Y-89820000D01*
X132005000Y-90665000D02*
X128860000Y-87520000D01*
%TO.N,GND*%
X127470000Y-88670000D02*
X132005000Y-93205000D01*
X126250000Y-88670000D02*
X127470000Y-88670000D01*
X132005000Y-93745000D02*
X132005000Y-93205000D01*
X130000000Y-95750000D02*
X132005000Y-93745000D01*
X130000000Y-104750000D02*
X130000000Y-95750000D01*
X126250000Y-108500000D02*
X130000000Y-104750000D01*
%TO.N,Net-(Brains1-D22)*%
X129935000Y-123685000D02*
X132005000Y-123685000D01*
X124250000Y-118000000D02*
X129935000Y-123685000D01*
X124250000Y-114000000D02*
X124250000Y-118000000D01*
X124670000Y-113580000D02*
X124250000Y-114000000D01*
X126250000Y-113580000D02*
X124670000Y-113580000D01*
%TO.N,Net-(Brains1-D21)*%
X126250000Y-116120000D02*
X131950000Y-116120000D01*
X131950000Y-116120000D02*
X132005000Y-116065000D01*
%TO.N,GND*%
X159900000Y-90710000D02*
X157405000Y-93205000D01*
X164959314Y-78475000D02*
X159900000Y-83534314D01*
X167550000Y-78475000D02*
X164959314Y-78475000D01*
X170650000Y-81575000D02*
X167550000Y-78475000D01*
X159900000Y-83534314D02*
X159900000Y-90710000D01*
X169500000Y-85265000D02*
X170650000Y-84115000D01*
X170650000Y-84115000D02*
X170650000Y-81575000D01*
%TO.N,Net-(Brains1-D13)*%
X162000000Y-82000000D02*
X162000000Y-91150000D01*
X165125000Y-78875000D02*
X162000000Y-82000000D01*
X162000000Y-91150000D02*
X157405000Y-95745000D01*
X168975000Y-82725000D02*
X165125000Y-78875000D01*
X169500000Y-82725000D02*
X168975000Y-82725000D01*
%TO.N,Net-(Brains1-D14)*%
X162850000Y-95380000D02*
X157405000Y-100825000D01*
X162850000Y-85125000D02*
X162850000Y-95380000D01*
X165250000Y-82725000D02*
X162850000Y-85125000D01*
%TO.N,GND*%
X169500000Y-85265000D02*
X165250000Y-85265000D01*
X169500000Y-88500000D02*
X169500000Y-85265000D01*
X165250000Y-92750000D02*
X169500000Y-88500000D01*
%TO.N,Net-(Brains1-D26)*%
X162845000Y-105905000D02*
X157405000Y-105905000D01*
X163250000Y-99000000D02*
X163250000Y-105500000D01*
X164525000Y-97725000D02*
X163250000Y-99000000D01*
X163250000Y-105500000D02*
X162845000Y-105905000D01*
X165250000Y-97725000D02*
X164525000Y-97725000D01*
%TO.N,Net-(Brains1-D27)*%
X163250000Y-98250000D02*
X158135000Y-103365000D01*
X164100000Y-91360000D02*
X164100000Y-95150000D01*
X164100000Y-95150000D02*
X163250000Y-96000000D01*
X163250000Y-96000000D02*
X163250000Y-98250000D01*
X165250000Y-90210000D02*
X164100000Y-91360000D01*
X158135000Y-103365000D02*
X157405000Y-103365000D01*
%TO.N,GND*%
X165250000Y-100265000D02*
X167250000Y-98265000D01*
X167250000Y-98265000D02*
X167250000Y-94750000D01*
X167250000Y-94750000D02*
X165250000Y-92750000D01*
X167250000Y-109765000D02*
X165250000Y-107765000D01*
X167250000Y-113265000D02*
X167250000Y-109765000D01*
X165250000Y-115265000D02*
X167250000Y-113265000D01*
X167250000Y-102265000D02*
X165250000Y-100265000D01*
X165250000Y-107765000D02*
X167250000Y-105765000D01*
X167250000Y-105765000D02*
X167250000Y-102265000D01*
%TO.N,Net-(Brains1-D25)*%
X164525000Y-105225000D02*
X165250000Y-105225000D01*
X161305000Y-108445000D02*
X164525000Y-105225000D01*
X157405000Y-108445000D02*
X161305000Y-108445000D01*
%TO.N,Net-(Brains1-D33)*%
X159145000Y-112725000D02*
X157405000Y-110985000D01*
X165250000Y-112725000D02*
X159145000Y-112725000D01*
%TO.N,GND*%
X165250000Y-119920000D02*
X165250000Y-115265000D01*
%TO.N,Net-(Brains1-D35)*%
X156105000Y-126763478D02*
X156105000Y-117365000D01*
X156105000Y-117365000D02*
X157405000Y-116065000D01*
X165250000Y-127540000D02*
X156881522Y-127540000D01*
X156881522Y-127540000D02*
X156105000Y-126763478D01*
%TO.N,Net-(Brains1-D32)*%
X163580000Y-131750000D02*
X165250000Y-130080000D01*
X156250000Y-131750000D02*
X163580000Y-131750000D01*
X154000000Y-129500000D02*
X156250000Y-131750000D01*
X154000000Y-113500000D02*
X154000000Y-129500000D01*
X157405000Y-113525000D02*
X157380000Y-113500000D01*
X157380000Y-113500000D02*
X154000000Y-113500000D01*
%TO.N,Net-(Brains1-D34)*%
X158855000Y-118605000D02*
X157405000Y-118605000D01*
X165250000Y-125000000D02*
X158855000Y-118605000D01*
%TO.N,GND*%
X157360000Y-93250000D02*
X157405000Y-93205000D01*
X132000000Y-93250000D02*
X157360000Y-93250000D01*
%TO.N,Net-(Brains1-D34)*%
X157405000Y-118605000D02*
X157405000Y-118595000D01*
X157405000Y-118595000D02*
X157500000Y-118500000D01*
%TD*%
M02*
