M48
; DRILL file KiCad 10.0.1 date 2026-05-24T16:41:54
; FORMAT={-:-/ absolute / metric / decimal}
; #@! TF.CreationDate,2026-05-24T16:41:54-04:00
; #@! TF.GenerationSoftware,Kicad,Pcbnew,10.0.1
; #@! TF.FileFunction,Plated,1,2,PTH
FMAT,2
METRIC
; #@! TA.AperFunction,Plated,PTH,ComponentDrill
T1C1.000
; #@! TA.AperFunction,Plated,PTH,ComponentDrill
T2C1.020
%
G90
G05
T1
X126.25Y-88.67
X126.25Y-91.21
X126.25Y-93.75
X126.25Y-96.29
X126.25Y-108.5
X126.25Y-111.04
X126.25Y-113.58
X126.25Y-116.12
X165.25Y-82.725
X165.25Y-85.265
X165.25Y-90.21
X165.25Y-92.75
X165.25Y-97.725
X165.25Y-100.265
X165.25Y-105.225
X165.25Y-107.765
X165.25Y-112.725
X165.25Y-115.265
X165.25Y-119.92
X165.25Y-122.46
X165.25Y-125.0
X165.25Y-127.54
X165.25Y-130.08
X169.5Y-82.725
X169.5Y-85.265
T2
X132.005Y-90.665
X132.005Y-93.205
X132.005Y-95.745
X132.005Y-98.285
X132.005Y-100.825
X132.005Y-103.365
X132.005Y-105.905
X132.005Y-108.445
X132.005Y-110.985
X132.005Y-113.525
X132.005Y-116.065
X132.005Y-118.605
X132.005Y-121.145
X132.005Y-123.685
X132.005Y-126.225
X157.405Y-90.665
X157.405Y-93.205
X157.405Y-95.745
X157.405Y-98.285
X157.405Y-100.825
X157.405Y-103.365
X157.405Y-105.905
X157.405Y-108.445
X157.405Y-110.985
X157.405Y-113.525
X157.405Y-116.065
X157.405Y-118.605
X157.405Y-121.145
X157.405Y-123.685
X157.405Y-126.225
M30
